<svg width="22" height="25" viewBox="0 0 22 25" fill="none" xmlns="http://www.w3.org/2000/svg">
<path fill-rule="evenodd" clip-rule="evenodd" d="M5.75871 0.54035C5.5989 0.606311 5.32557 0.874935 5.26509 1.02538C5.23731 1.09455 5.21457 1.59779 5.21457 2.14367V3.13618L4.63166 3.22697C2.99903 3.4812 1.73761 4.20079 0.969065 5.31641C0.512336 5.97944 0.159966 6.9995 0.081267 7.88622C0.0454114 8.29035 0.0481609 8.30225 0.219305 8.48389L0.393886 8.66927H10.9996H21.6053L21.7724 8.49182C21.97 8.28204 21.9815 8.12545 21.8514 7.41314C21.422 5.06235 19.8742 3.6173 17.3675 3.22697L16.7846 3.13618V2.13134C16.7846 1.16122 16.7797 1.11857 16.6433 0.897863C16.4596 0.600497 16.1802 0.470695 15.7986 0.505522C15.4765 0.534862 15.2603 0.666023 15.0949 0.932474C14.9939 1.09509 14.9781 1.23435 14.9615 2.10852L14.9426 3.1001H10.9996H7.05655L7.03765 2.10852C7.01703 1.02462 6.97762 0.880857 6.63453 0.638259C6.4643 0.517856 5.9519 0.460589 5.75871 0.54035ZM0.814302 10.4969C0.551342 10.5688 0.158649 10.9566 0.0727902 11.2292C-0.0173642 11.5154 -0.0269296 18.9575 0.0618502 19.6989C0.238092 21.1703 0.711489 22.1934 1.60811 23.0404C2.16192 23.5637 2.71866 23.8922 3.4549 24.1305C4.57163 24.4919 4.18816 24.4728 10.7132 24.4932C15.8827 24.5093 16.7204 24.5007 17.2587 24.4259C17.9242 24.3336 18.7123 24.1116 19.2005 23.879C20.7514 23.1401 21.7026 21.6901 21.9354 19.7096C22.0268 18.9321 22.0189 11.523 21.9264 11.2292C21.8355 10.9406 21.464 10.5882 21.1596 10.5019C20.8633 10.4179 1.12114 10.4131 0.814302 10.4969ZM7.07591 14.1542C7.63104 14.3127 8.02946 14.9047 7.93564 15.4315C7.82968 16.0266 7.2356 16.4566 6.60486 16.3949C5.78167 16.3142 5.28078 15.5141 5.6107 14.8066C5.75693 14.493 5.86908 14.3662 6.10225 14.2509C6.46173 14.0732 6.70693 14.0488 7.07591 14.1542ZM11.3109 14.1346C12.2172 14.351 12.5097 15.4764 11.821 16.0965C11.0649 16.7773 9.79675 16.2603 9.79675 15.2712C9.79675 14.7014 10.1201 14.2972 10.7128 14.1262C10.9199 14.0665 11.0323 14.068 11.3109 14.1346ZM15.9254 14.2828C16.1137 14.3898 16.2256 14.5085 16.3407 14.7239C16.6014 15.2117 16.5294 15.679 16.1359 16.0516C15.7401 16.4265 15.2523 16.5055 14.7375 16.2782C14.2002 16.0408 13.9439 15.488 14.114 14.9329C14.34 14.1957 15.2174 13.8808 15.9254 14.2828ZM7.27191 18.2943C8.03599 18.6554 8.17466 19.5951 7.54513 20.1455C6.93736 20.6769 5.98134 20.5124 5.64037 19.8177C5.40152 19.3311 5.47959 18.8742 5.86381 18.5097C6.26595 18.1283 6.7606 18.0525 7.27191 18.2943ZM11.3591 18.208C11.8304 18.3322 12.2024 18.8099 12.2024 19.291C12.2024 19.969 11.701 20.4537 10.9996 20.4537C10.2982 20.4537 9.79675 19.969 9.79675 19.291C9.79675 18.5276 10.5611 17.9978 11.3591 18.208ZM15.6248 18.2139C15.8068 18.2574 15.9666 18.3496 16.1327 18.5072C16.5205 18.8751 16.5983 19.3297 16.3573 19.8206C16.0002 20.5483 14.977 20.6885 14.395 20.0895C14.1379 19.8249 13.9988 19.4158 14.0644 19.1172C14.1191 18.8686 14.3565 18.4928 14.5253 18.388C14.7097 18.2734 15.0605 18.1558 15.227 18.1528C15.2997 18.1515 15.4787 18.179 15.6248 18.2139Z" fill="#054B57"/>
</svg>
