<svg width="28" height="30" viewBox="0 0 28 30" fill="none" xmlns="http://www.w3.org/2000/svg">
<path fill-rule="evenodd" clip-rule="evenodd" d="M27.095 7.68L26.885 7.305C26.6141 6.85153 26.232 6.47464 25.775 6.21L15.71 0.405C15.2543 0.140625 14.7369 0.00093 14.21 0H13.775C13.248 0.00093 12.7307 0.140625 12.275 0.405L2.21 6.225C1.75545 6.48789 1.37789 6.86545 1.115 7.32L0.905 7.695C0.640625 8.15076 0.50093 8.66811 0.5 9.195V20.82C0.50093 21.3469 0.640625 21.8643 0.905 22.32L1.115 22.695C1.38468 23.1442 1.76073 23.5203 2.21 23.79L12.29 29.595C12.7434 29.8648 13.2623 30.0049 13.79 30H14.21C14.7369 29.9991 15.2543 29.8594 15.71 29.595L25.775 23.775C26.234 23.518 26.613 23.139 26.87 22.68L27.095 22.305C27.3561 21.8479 27.4956 21.3315 27.5 20.805V9.18C27.4991 8.65311 27.3594 8.13576 27.095 7.68ZM13.775 3H14.21L23 8.07L14 13.26L5 8.07L13.775 3ZM15.5 26.25L24.275 21.18L24.5 20.805V10.665L15.5 15.87V26.25Z" fill="url(#paint0_linear_85_657)"/>
<path fill-rule="evenodd" clip-rule="evenodd" d="M27.095 7.68L26.885 7.305C26.6141 6.85153 26.232 6.47464 25.775 6.21L15.71 0.405C15.2543 0.140625 14.7369 0.00093 14.21 0H13.775C13.248 0.00093 12.7307 0.140625 12.275 0.405L2.21 6.225C1.75545 6.48789 1.37789 6.86545 1.115 7.32L0.905 7.695C0.640625 8.15076 0.50093 8.66811 0.5 9.195V20.82C0.50093 21.3469 0.640625 21.8643 0.905 22.32L1.115 22.695C1.38468 23.1442 1.76073 23.5203 2.21 23.79L12.29 29.595C12.7434 29.8648 13.2623 30.0049 13.79 30H14.21C14.7369 29.9991 15.2543 29.8594 15.71 29.595L25.775 23.775C26.234 23.518 26.613 23.139 26.87 22.68L27.095 22.305C27.3561 21.8479 27.4956 21.3315 27.5 20.805V9.18C27.4991 8.65311 27.3594 8.13576 27.095 7.68ZM13.775 3H14.21L23 8.07L14 13.26L5 8.07L13.775 3ZM15.5 26.25L24.275 21.18L24.5 20.805V10.665L15.5 15.87V26.25Z" fill="url(#paint1_linear_85_657)"/>
<defs>
<linearGradient id="paint0_linear_85_657" x1="14" y1="0" x2="14" y2="30.0001" gradientUnits="userSpaceOnUse">
<stop stop-color="#8C8C8D"/>
<stop offset="1" stop-color="#272727"/>
</linearGradient>
<linearGradient id="paint1_linear_85_657" x1="-35.1543" y1="15.0506" x2="23.0429" y2="15.0019" gradientUnits="userSpaceOnUse">
<stop stop-color="#2995E2"/>
<stop offset="1" stop-color="#00EBD9"/>
</linearGradient>
</defs>
</svg>
