<svg width="14" height="14" viewBox="0 0 14 14" fill="none" xmlns="http://www.w3.org/2000/svg">
<path fill-rule="evenodd" clip-rule="evenodd" d="M6.64179 0.0583533C6.4009 0.1533 0.445508 3.76686 0.307699 3.90174C0.238341 3.96962 0.143496 4.10695 0.0969324 4.20689L0.012269 4.38865L0.0036762 8.47903C-0.00572725 12.9417 -0.0115314 12.7858 0.178191 13.1628C0.288114 13.3812 0.614738 13.7101 0.831633 13.8207C1.17865 13.9978 1.29243 14.0075 2.90853 13.9972L4.38973 13.9878L4.57086 13.9023C4.80112 13.7935 4.97502 13.6184 5.08299 13.3866L5.16795 13.2042L5.18416 11.5496C5.19992 9.94245 5.20229 9.8923 5.26724 9.80476C5.30401 9.75523 5.37437 9.68438 5.42363 9.64736C5.51101 9.58167 5.54889 9.58003 7 9.58003C8.45111 9.58003 8.48899 9.58167 8.57637 9.64736C8.62563 9.68438 8.69599 9.75523 8.73276 9.80476C8.79771 9.8923 8.80008 9.94245 8.81584 11.5496L8.83205 13.2042L8.91701 13.3866C9.02498 13.6184 9.19888 13.7935 9.42914 13.9023L9.61027 13.9878L11.0915 13.9972C12.7076 14.0075 12.8213 13.9978 13.1684 13.8207C13.3853 13.7101 13.7119 13.3812 13.8218 13.1628C14.0115 12.7858 14.0057 12.9417 13.9963 8.47903L13.9877 4.38865L13.9028 4.20627C13.8561 4.10593 13.7654 3.97102 13.7012 3.90644C13.561 3.76523 7.47183 0.0796412 7.29883 0.0312536C7.11696 -0.0196154 6.80723 -0.00684913 6.64179 0.0583533Z" fill="#054B57"/>
</svg>
