<svg width="16" height="16" viewBox="0 0 16 16" fill="none" xmlns="http://www.w3.org/2000/svg">
<path fill-rule="evenodd" clip-rule="evenodd" d="M7.35676 0.0403477C5.9972 0.252879 4.80701 1.13672 4.19845 2.38569C3.52936 3.75891 3.6687 5.40691 4.55954 6.65697C4.80614 7.00297 5.31123 7.49357 5.65676 7.72266C7.08557 8.67 8.9092 8.67 10.338 7.72266C10.6835 7.49357 11.1886 7.00297 11.4352 6.65697C12.4493 5.234 12.4774 3.33804 11.5062 1.87319C11.2771 1.52766 10.7865 1.02257 10.4405 0.775973C9.91136 0.398879 9.26782 0.138535 8.62239 0.0405352C8.26707 -0.0134335 7.70126 -0.0135273 7.35676 0.0403477ZM6.35676 9.40647C4.09792 9.66169 2.08695 11.2851 1.31129 13.4794C1.09854 14.0813 0.949386 14.9409 0.970792 15.4416C0.983355 15.7352 1.04623 15.858 1.22804 15.9443C1.32564 15.9907 1.91507 15.9951 7.99739 15.9951C15.3776 15.9951 14.7892 16.0119 14.9433 15.7959C15.0075 15.7058 15.0128 15.6651 15.0102 15.2763C15.0026 14.114 14.5622 12.8563 13.8052 11.8349C13.5579 11.5012 13.028 10.9568 12.6809 10.6796C11.7978 9.97463 10.7074 9.5251 9.58454 9.40304C9.22011 9.36344 6.71417 9.3661 6.35676 9.40647Z" fill="#F1F9FB"/>
</svg>
