<svg width="539" height="540" viewBox="0 0 539 540" fill="none" xmlns="http://www.w3.org/2000/svg">
<circle cx="449" cy="378" r="17" transform="rotate(180 449 378)" stroke="#054B57" stroke-width="2"/>
<circle cx="377" cy="378" r="17" transform="rotate(180 377 378)" stroke="#054B57" stroke-width="2"/>
<circle cx="377" cy="450" r="17" transform="rotate(180 377 450)" stroke="#054B57" stroke-width="2"/>
<circle cx="305" cy="450" r="17" transform="rotate(180 305 450)" stroke="#054B57" stroke-width="2"/>
<circle cx="161" cy="450" r="17" transform="rotate(180 161 450)" stroke="#054B57" stroke-width="2"/>
<circle cx="161" cy="522" r="17" transform="rotate(180 161 522)" stroke="#054B57" stroke-width="2"/>
<circle cx="377" cy="306" r="17" transform="rotate(180 377 306)" stroke="#054B57" stroke-width="2"/>
<circle cx="449" cy="306" r="17" transform="rotate(180 449 306)" stroke="#054B57" stroke-width="2"/>
<circle cx="521" cy="378" r="17" transform="rotate(180 521 378)" stroke="#054B57" stroke-width="2"/>
<circle cx="305" cy="234" r="17" transform="rotate(180 305 234)" stroke="#054B57" stroke-width="2"/>
<circle cx="449" cy="162" r="17" transform="rotate(180 449 162)" stroke="#054B57" stroke-width="2"/>
<circle cx="520" cy="234" r="17" transform="rotate(180 520 234)" stroke="#054B57" stroke-width="2"/>
<circle cx="233" cy="234" r="17" transform="rotate(180 233 234)" stroke="#054B57" stroke-width="2"/>
<circle cx="305" cy="90" r="17" transform="rotate(180 305 90)" stroke="#054B57" stroke-width="2"/>
<circle cx="233" cy="378" r="17" transform="rotate(180 233 378)" stroke="#054B57" stroke-width="2"/>
<circle cx="233" cy="450" r="17" transform="rotate(180 233 450)" stroke="#054B57" stroke-width="2"/>
<circle cx="89" cy="306" r="17" transform="rotate(180 89 306)" stroke="#054B57" stroke-width="2"/>
<circle cx="18" cy="378" r="17" transform="rotate(180 18 378)" stroke="#054B57" stroke-width="2"/>
<circle cx="89" cy="234" r="17" transform="rotate(180 89 234)" stroke="#054B57" stroke-width="2"/>
<circle cx="233" cy="162" r="17" transform="rotate(180 233 162)" stroke="#054B57" stroke-width="2"/>
<circle cx="233" cy="90" r="17" transform="rotate(180 233 90)" stroke="#054B57" stroke-width="2"/>
<circle cx="233" cy="18" r="17" transform="rotate(180 233 18)" stroke="#054B57" stroke-width="2"/>
<circle cx="161" cy="306" r="17" transform="rotate(180 161 306)" stroke="#054B57" stroke-width="2"/>
<circle cx="161" cy="234" r="17" transform="rotate(180 161 234)" stroke="#054B57" stroke-width="2"/>
<mask id="path-25-inside-1_73_4856" fill="white">
<path fill-rule="evenodd" clip-rule="evenodd" d="M302 342C302 352.533 292.349 361.419 288.345 371.161C287.478 373.27 287 375.579 287 378C287 387.941 295.059 396 305 396C314.941 396 323 387.941 323 378C323 375.579 322.522 373.27 321.655 371.161C317.651 361.419 308 352.533 308 342C308 331.467 317.651 322.581 321.655 312.839C322.522 310.73 323 308.421 323 306C323 296.059 314.941 288 305 288C302.579 288 300.27 288.478 298.161 289.345C288.419 293.349 279.533 303 269 303C258.467 303 249.581 293.349 239.839 289.345C237.73 288.478 235.421 288 233 288C223.059 288 215 296.059 215 306C215 315.941 223.059 324 233 324C235.421 324 237.73 323.522 239.839 322.655C249.581 318.651 258.467 309 269 309H276.124C282.545 309 287.732 314.187 292.272 318.728C296.813 323.268 302 328.455 302 334.876V342Z"/>
</mask>
<path d="M321.655 312.839L323.505 313.599L321.655 312.839ZM239.839 289.345L240.599 287.495L239.839 289.345ZM289 378C289 375.844 289.425 373.793 290.195 371.921L286.495 370.401C285.531 372.746 285 375.314 285 378H289ZM305 394C296.163 394 289 386.837 289 378H285C285 389.046 293.954 398 305 398V394ZM321 378C321 386.837 313.837 394 305 394V398C316.046 398 325 389.046 325 378H321ZM319.805 371.921C320.575 373.793 321 375.844 321 378H325C325 375.314 324.469 372.746 323.505 370.401L319.805 371.921ZM321 306C321 308.156 320.575 310.207 319.805 312.079L323.505 313.599C324.469 311.254 325 308.686 325 306H321ZM305 290C313.837 290 321 297.163 321 306H325C325 294.954 316.046 286 305 286V290ZM298.921 291.195C300.793 290.425 302.844 290 305 290V286C302.314 286 299.746 286.531 297.401 287.495L298.921 291.195ZM233 290C235.156 290 237.207 290.425 239.079 291.195L240.599 287.495C238.254 286.531 235.686 286 233 286V290ZM217 306C217 297.163 224.163 290 233 290V286C221.954 286 213 294.954 213 306H217ZM233 322C224.163 322 217 314.837 217 306H213C213 317.046 221.954 326 233 326V322ZM239.079 320.805C237.207 321.575 235.156 322 233 322V326C235.686 326 238.254 325.469 240.599 324.505L239.079 320.805ZM276.124 307H269V311H276.124V307ZM304 342V334.876H300V342H304ZM276.124 311C278.774 311 281.277 312.067 283.757 313.8C286.255 315.547 288.563 317.848 290.858 320.142L293.686 317.314C291.44 315.068 288.885 312.505 286.049 310.522C283.196 308.527 279.895 307 276.124 307V311ZM240.599 324.505C245.667 322.422 250.619 318.818 255.168 316.031C259.883 313.143 264.328 311 269 311V307C263.139 307 257.874 309.683 253.078 312.62C248.116 315.66 243.753 318.884 239.079 320.805L240.599 324.505ZM297.401 287.495C292.333 289.578 287.381 293.182 282.832 295.969C278.117 298.857 273.672 301 269 301V305C274.861 305 280.126 302.317 284.922 299.38C289.884 296.34 294.247 293.116 298.921 291.195L297.401 287.495ZM310 342C310 337.328 312.143 332.883 315.031 328.168C317.818 323.619 321.422 318.667 323.505 313.599L319.805 312.079C317.884 316.753 314.66 321.116 311.62 326.078C308.683 330.874 306 336.139 306 342H310ZM269 301C264.328 301 259.883 298.857 255.168 295.969C250.619 293.182 245.667 289.578 240.599 287.495L239.079 291.195C243.753 293.116 248.116 296.34 253.078 299.38C257.874 302.317 263.139 305 269 305V301ZM290.858 320.142C293.152 322.437 295.453 324.745 297.2 327.243C298.933 329.723 300 332.226 300 334.876H304C304 331.105 302.473 327.804 300.478 324.951C298.495 322.115 295.932 319.56 293.686 317.314L290.858 320.142ZM323.505 370.401C321.422 365.333 317.818 360.381 315.031 355.832C312.143 351.117 310 346.672 310 342H306C306 347.861 308.683 353.126 311.62 357.922C314.66 362.884 317.884 367.247 319.805 371.921L323.505 370.401ZM290.195 371.921C292.116 367.247 295.34 362.884 298.38 357.922C301.317 353.126 304 347.861 304 342H300C300 346.672 297.857 351.117 294.969 355.832C292.182 360.381 288.578 365.333 286.495 370.401L290.195 371.921Z" fill="#054B57" mask="url(#path-25-inside-1_73_4856)"/>
<mask id="path-27-inside-2_73_4856" fill="white">
<path fill-rule="evenodd" clip-rule="evenodd" d="M374 126C374 115.467 364.349 106.581 360.345 96.8391C359.478 94.7305 359 92.4211 359 90C359 80.0589 367.059 72 377 72C386.941 72 395 80.0589 395 90C395 92.4211 394.522 94.7305 393.655 96.8391C389.651 106.581 380 115.467 380 126C380 136.533 389.651 145.419 393.655 155.161C394.522 157.27 395 159.579 395 162C395 171.941 386.941 180 377 180C374.579 180 372.27 179.522 370.161 178.655C360.419 174.651 351.533 165 341 165C330.467 165 321.581 174.651 311.839 178.655C309.73 179.522 307.421 180 305 180C295.059 180 287 171.941 287 162C287 152.059 295.059 144 305 144C307.421 144 309.73 144.478 311.839 145.345C321.581 149.349 330.467 159 341 159H348.124C354.545 159 359.732 153.813 364.272 149.272C368.813 144.732 374 139.545 374 133.124V126Z"/>
</mask>
<path d="M393.655 155.161L395.505 154.401L393.655 155.161ZM311.839 178.655L312.599 180.505L311.839 178.655ZM361 90C361 92.1557 361.425 94.2072 362.195 96.0787L358.495 97.5995C357.531 95.2538 357 92.6864 357 90H361ZM377 74C368.163 74 361 81.1634 361 90H357C357 78.9543 365.954 70 377 70V74ZM393 90C393 81.1634 385.837 74 377 74V70C388.046 70 397 78.9543 397 90H393ZM391.805 96.0787C392.575 94.2072 393 92.1557 393 90H397C397 92.6864 396.469 95.2538 395.505 97.5995L391.805 96.0787ZM393 162C393 159.844 392.575 157.793 391.805 155.921L395.505 154.401C396.469 156.746 397 159.314 397 162H393ZM377 178C385.837 178 393 170.837 393 162H397C397 173.046 388.046 182 377 182V178ZM370.921 176.805C372.793 177.575 374.844 178 377 178V182C374.314 182 371.746 181.469 369.401 180.505L370.921 176.805ZM305 178C307.156 178 309.207 177.575 311.079 176.805L312.599 180.505C310.254 181.469 307.686 182 305 182V178ZM289 162C289 170.837 296.163 178 305 178V182C293.954 182 285 173.046 285 162H289ZM305 146C296.163 146 289 153.163 289 162H285C285 150.954 293.954 142 305 142V146ZM311.079 147.195C309.207 146.425 307.156 146 305 146V142C307.686 142 310.254 142.531 312.599 143.495L311.079 147.195ZM348.124 161H341V157H348.124V161ZM376 126V133.124H372V126H376ZM348.124 157C350.774 157 353.277 155.933 355.757 154.2C358.255 152.453 360.563 150.152 362.858 147.858L365.686 150.686C363.44 152.932 360.885 155.495 358.049 157.478C355.196 159.473 351.895 161 348.124 161V157ZM312.599 143.495C317.667 145.578 322.619 149.182 327.168 151.969C331.883 154.857 336.328 157 341 157V161C335.139 161 329.874 158.317 325.078 155.38C320.116 152.34 315.753 149.116 311.079 147.195L312.599 143.495ZM369.401 180.505C364.333 178.422 359.381 174.818 354.832 172.031C350.117 169.143 345.672 167 341 167V163C346.861 163 352.126 165.683 356.922 168.62C361.884 171.66 366.247 174.884 370.921 176.805L369.401 180.505ZM382 126C382 130.672 384.143 135.117 387.031 139.832C389.818 144.381 393.422 149.333 395.505 154.401L391.805 155.921C389.884 151.247 386.66 146.884 383.62 141.922C380.683 137.126 378 131.861 378 126H382ZM341 167C336.328 167 331.883 169.143 327.168 172.031C322.619 174.818 317.667 178.422 312.599 180.505L311.079 176.805C315.753 174.884 320.116 171.66 325.078 168.62C329.874 165.683 335.139 163 341 163V167ZM362.858 147.858C365.152 145.563 367.453 143.255 369.2 140.757C370.933 138.277 372 135.774 372 133.124H376C376 136.895 374.473 140.196 372.478 143.049C370.495 145.885 367.932 148.44 365.686 150.686L362.858 147.858ZM395.505 97.5995C393.422 102.667 389.818 107.619 387.031 112.168C384.143 116.883 382 121.328 382 126H378C378 120.139 380.683 114.874 383.62 110.078C386.66 105.116 389.884 100.753 391.805 96.0787L395.505 97.5995ZM362.195 96.0787C364.116 100.753 367.34 105.116 370.38 110.078C373.317 114.874 376 120.139 376 126H372C372 121.328 369.857 116.883 366.969 112.168C364.182 107.619 360.578 102.667 358.495 97.5995L362.195 96.0787Z" fill="#054B57" mask="url(#path-27-inside-2_73_4856)"/>
<mask id="path-29-inside-3_73_4856" fill="white">
<path fill-rule="evenodd" clip-rule="evenodd" d="M412.5 231C422.745 231 431.338 221.7 440.701 217.541C442.932 216.551 445.402 216 448 216C457.941 216 466 224.059 466 234C466 243.941 457.941 252 448 252C445.402 252 442.932 251.449 440.701 250.459C431.338 246.3 422.745 237 412.5 237C402.255 237 393.662 246.3 384.299 250.459C382.068 251.449 379.598 252 377 252C367.059 252 359 243.941 359 234C359 224.059 367.059 216 377 216C379.598 216 382.068 216.551 384.299 217.541C393.662 221.7 402.255 231 412.5 231Z"/>
</mask>
<path d="M440.701 217.541L441.513 219.369L440.701 217.541ZM448 214C445.117 214 442.371 214.611 439.889 215.713L441.513 219.369C443.493 218.49 445.687 218 448 218V214ZM468 234C468 222.954 459.046 214 448 214V218C456.837 218 464 225.163 464 234H468ZM448 254C459.046 254 468 245.046 468 234H464C464 242.837 456.837 250 448 250V254ZM439.889 252.287C442.371 253.389 445.117 254 448 254V250C445.687 250 443.493 249.51 441.513 248.631L439.889 252.287ZM377 254C379.883 254 382.629 253.389 385.111 252.287L383.487 248.631C381.507 249.51 379.313 250 377 250V254ZM357 234C357 245.046 365.954 254 377 254V250C368.163 250 361 242.837 361 234H357ZM377 214C365.954 214 357 222.954 357 234H361C361 225.163 368.163 218 377 218V214ZM385.111 215.713C382.629 214.611 379.883 214 377 214V218C379.313 218 381.507 218.49 383.487 219.369L385.111 215.713ZM412.5 235C406.785 235 401.667 237.593 397.017 240.469C392.196 243.451 388.006 246.624 383.487 248.631L385.111 252.287C389.954 250.135 394.743 246.579 399.121 243.871C403.669 241.058 407.971 239 412.5 239V235ZM383.487 219.369C388.006 221.376 392.196 224.549 397.017 227.531C401.667 230.407 406.785 233 412.5 233V229C407.971 229 403.669 226.942 399.121 224.129C394.743 221.421 389.954 217.865 385.111 215.713L383.487 219.369ZM441.513 248.631C436.994 246.624 432.804 243.451 427.983 240.469C423.333 237.593 418.215 235 412.5 235V239C417.029 239 421.331 241.058 425.879 243.871C430.257 246.579 435.046 250.135 439.889 252.287L441.513 248.631ZM439.889 215.713C435.046 217.865 430.257 221.421 425.879 224.129C421.331 226.942 417.029 229 412.5 229V233C418.215 233 423.333 230.407 427.983 227.531C432.804 224.549 436.994 221.376 441.513 219.369L439.889 215.713Z" fill="#054B57" mask="url(#path-29-inside-3_73_4856)"/>
<mask id="path-31-inside-4_73_4856" fill="white">
<path fill-rule="evenodd" clip-rule="evenodd" d="M158 126.5C158 116.255 148.7 107.662 144.541 98.2988C143.551 96.068 143 93.5983 143 91C143 81.0589 151.059 73 161 73C170.941 73 179 81.0589 179 91C179 93.5983 178.449 96.068 177.459 98.2988C173.3 107.662 164 116.255 164 126.5C164 136.745 173.3 145.338 177.459 154.701C178.449 156.932 179 159.402 179 162C179 171.941 170.941 180 161 180C151.059 180 143 171.941 143 162C143 159.402 143.551 156.932 144.541 154.701C148.7 145.338 158 136.745 158 126.5Z"/>
</mask>
<path d="M144.541 98.2988L146.369 97.487L144.541 98.2988ZM141 91C141 93.8833 141.611 96.6291 142.713 99.1106L146.369 97.487C145.49 95.5068 145 93.3133 145 91H141ZM161 71C149.954 71 141 79.9543 141 91H145C145 82.1634 152.163 75 161 75V71ZM181 91C181 79.9543 172.046 71 161 71V75C169.837 75 177 82.1634 177 91H181ZM179.287 99.1106C180.389 96.6291 181 93.8833 181 91H177C177 93.3133 176.51 95.5068 175.631 97.487L179.287 99.1106ZM181 162C181 159.117 180.389 156.371 179.287 153.889L175.631 155.513C176.51 157.493 177 159.687 177 162H181ZM161 182C172.046 182 181 173.046 181 162H177C177 170.837 169.837 178 161 178V182ZM141 162C141 173.046 149.954 182 161 182V178C152.163 178 145 170.837 145 162H141ZM142.713 153.889C141.611 156.371 141 159.117 141 162H145C145 159.687 145.49 157.493 146.369 155.513L142.713 153.889ZM162 126.5C162 132.215 164.593 137.333 167.469 141.983C170.451 146.804 173.624 150.994 175.631 155.513L179.287 153.889C177.135 149.046 173.579 144.257 170.871 139.879C168.058 135.331 166 131.029 166 126.5H162ZM146.369 155.513C148.376 150.994 151.549 146.804 154.531 141.983C157.407 137.333 160 132.215 160 126.5H156C156 131.029 153.942 135.331 151.129 139.879C148.421 144.257 144.865 149.046 142.713 153.889L146.369 155.513ZM175.631 97.487C173.624 102.006 170.451 106.196 167.469 111.017C164.593 115.667 162 120.785 162 126.5H166C166 121.971 168.058 117.669 170.871 113.121C173.579 108.743 177.135 103.954 179.287 99.1106L175.631 97.487ZM142.713 99.1106C144.865 103.954 148.421 108.743 151.129 113.121C153.942 117.669 156 121.971 156 126.5H160C160 120.785 157.407 115.667 154.531 111.017C151.549 106.196 148.376 102.006 146.369 97.487L142.713 99.1106Z" fill="#054B57" mask="url(#path-31-inside-4_73_4856)"/>
<mask id="path-33-inside-5_73_4856" fill="white">
<path fill-rule="evenodd" clip-rule="evenodd" d="M125.5 375C135.745 375 144.338 365.7 153.701 361.541C155.932 360.551 158.402 360 161 360C170.941 360 179 368.059 179 378C179 387.941 170.941 396 161 396C158.402 396 155.932 395.449 153.701 394.459C144.338 390.3 135.745 381 125.5 381C115.255 381 106.662 390.3 97.2988 394.459C95.068 395.449 92.5983 396 90 396C80.0589 396 72 387.941 72 378C72 368.059 80.0589 360 90 360C92.5983 360 95.068 360.551 97.2988 361.541C106.662 365.7 115.255 375 125.5 375Z"/>
</mask>
<path d="M153.701 361.541L154.513 363.369L153.701 361.541ZM161 358C158.117 358 155.371 358.611 152.889 359.713L154.513 363.369C156.493 362.49 158.687 362 161 362V358ZM181 378C181 366.954 172.046 358 161 358V362C169.837 362 177 369.163 177 378H181ZM161 398C172.046 398 181 389.046 181 378H177C177 386.837 169.837 394 161 394V398ZM152.889 396.287C155.371 397.389 158.117 398 161 398V394C158.687 394 156.493 393.51 154.513 392.631L152.889 396.287ZM90 398C92.8833 398 95.6291 397.389 98.1106 396.287L96.487 392.631C94.5068 393.51 92.3133 394 90 394V398ZM70 378C70 389.046 78.9543 398 90 398V394C81.1634 394 74 386.837 74 378H70ZM90 358C78.9543 358 70 366.954 70 378H74C74 369.163 81.1634 362 90 362V358ZM98.1106 359.713C95.6291 358.611 92.8833 358 90 358V362C92.3133 362 94.5068 362.49 96.487 363.369L98.1106 359.713ZM125.5 379C119.785 379 114.667 381.593 110.017 384.469C105.196 387.451 101.006 390.624 96.487 392.631L98.1106 396.287C102.954 394.135 107.743 390.579 112.121 387.871C116.669 385.058 120.971 383 125.5 383V379ZM96.487 363.369C101.006 365.376 105.196 368.549 110.017 371.531C114.667 374.407 119.785 377 125.5 377V373C120.971 373 116.669 370.942 112.121 368.129C107.743 365.421 102.954 361.865 98.1106 359.713L96.487 363.369ZM154.513 392.631C149.994 390.624 145.804 387.451 140.983 384.469C136.333 381.593 131.215 379 125.5 379V383C130.029 383 134.331 385.058 138.879 387.871C143.257 390.579 148.046 394.135 152.889 396.287L154.513 392.631ZM152.889 359.713C148.046 361.865 143.257 365.421 138.879 368.129C134.331 370.942 130.029 373 125.5 373V377C131.215 377 136.333 374.407 140.983 371.531C145.804 368.549 149.994 365.376 154.513 363.369L152.889 359.713Z" fill="#054B57" mask="url(#path-33-inside-5_73_4856)"/>
</svg>
