<svg width="539" height="396" viewBox="0 0 539 396" fill="none" xmlns="http://www.w3.org/2000/svg">
<circle cx="90" cy="18" r="17" stroke="#F1F9FB" stroke-width="2"/>
<circle cx="162" cy="18" r="17" stroke="#F1F9FB" stroke-width="2"/>
<circle cx="162" cy="90" r="17" stroke="#F1F9FB" stroke-width="2"/>
<circle cx="90" cy="90" r="17" stroke="#F1F9FB" stroke-width="2"/>
<circle cx="18" cy="18" r="17" stroke="#F1F9FB" stroke-width="2"/>
<circle cx="234" cy="162" r="17" stroke="#F1F9FB" stroke-width="2"/>
<circle cx="90" cy="234" r="17" stroke="#F1F9FB" stroke-width="2"/>
<circle cx="19" cy="162" r="17" stroke="#F1F9FB" stroke-width="2"/>
<circle cx="306" cy="162" r="17" stroke="#F1F9FB" stroke-width="2"/>
<circle cx="234" cy="306" r="17" stroke="#F1F9FB" stroke-width="2"/>
<circle cx="306" cy="18" r="17" stroke="#F1F9FB" stroke-width="2"/>
<circle cx="450" cy="90" r="17" stroke="#F1F9FB" stroke-width="2"/>
<circle cx="521" cy="18" r="17" stroke="#F1F9FB" stroke-width="2"/>
<circle cx="450" cy="162" r="17" stroke="#F1F9FB" stroke-width="2"/>
<circle cx="306" cy="234" r="17" stroke="#F1F9FB" stroke-width="2"/>
<circle cx="306" cy="306" r="17" stroke="#F1F9FB" stroke-width="2"/>
<circle cx="306" cy="378" r="17" stroke="#F1F9FB" stroke-width="2"/>
<circle cx="378" cy="90" r="17" stroke="#F1F9FB" stroke-width="2"/>
<circle cx="378" cy="162" r="17" stroke="#F1F9FB" stroke-width="2"/>
<mask id="path-20-inside-1_28_945" fill="white">
<path fill-rule="evenodd" clip-rule="evenodd" d="M237 54C237 43.4667 246.651 34.5814 250.655 24.8391C251.522 22.7305 252 20.4211 252 18C252 8.05887 243.941 0 234 0C224.059 0 216 8.05887 216 18C216 20.4211 216.478 22.7305 217.345 24.8391C221.349 34.5814 231 43.4667 231 54C231 64.5333 221.349 73.4186 217.345 83.1609C216.478 85.2695 216 87.5789 216 90C216 99.9411 224.059 108 234 108C236.421 108 238.73 107.522 240.839 106.655C250.581 102.651 259.467 93 270 93C280.533 93 289.419 102.651 299.161 106.655C301.27 107.522 303.579 108 306 108C315.941 108 324 99.9411 324 90C324 80.0589 315.941 72 306 72C303.579 72 301.27 72.478 299.161 73.3447C289.419 77.3495 280.533 87 270 87H262.876C256.455 87 251.268 81.8126 246.728 77.2721C242.187 72.7316 237 67.5454 237 61.1242V54Z"/>
</mask>
<path d="M217.345 83.1609L215.495 82.4005L217.345 83.1609ZM299.161 106.655L298.401 108.505L299.161 106.655ZM250 18C250 20.1557 249.575 22.2072 248.805 24.0787L252.505 25.5995C253.469 23.2538 254 20.6864 254 18H250ZM234 2C242.837 2 250 9.16344 250 18H254C254 6.9543 245.046 -2 234 -2V2ZM218 18C218 9.16344 225.163 2 234 2V-2C222.954 -2 214 6.9543 214 18H218ZM219.195 24.0787C218.425 22.2072 218 20.1557 218 18H214C214 20.6864 214.531 23.2538 215.495 25.5995L219.195 24.0787ZM218 90C218 87.8443 218.425 85.7928 219.195 83.9213L215.495 82.4005C214.531 84.7462 214 87.3136 214 90H218ZM234 106C225.163 106 218 98.8366 218 90H214C214 101.046 222.954 110 234 110V106ZM240.079 104.805C238.207 105.575 236.156 106 234 106V110C236.686 110 239.254 109.469 241.599 108.505L240.079 104.805ZM306 106C303.844 106 301.793 105.575 299.921 104.805L298.401 108.505C300.746 109.469 303.314 110 306 110V106ZM322 90C322 98.8366 314.837 106 306 106V110C317.046 110 326 101.046 326 90H322ZM306 74C314.837 74 322 81.1634 322 90H326C326 78.9543 317.046 70 306 70V74ZM299.921 75.1946C301.793 74.4252 303.844 74 306 74V70C303.314 70 300.746 70.5307 298.401 71.4949L299.921 75.1946ZM262.876 89H270V85H262.876V89ZM235 54V61.1242H239V54H235ZM262.876 85C260.226 85 257.723 83.9334 255.243 82.1996C252.745 80.4535 250.437 78.1524 248.142 75.8579L245.314 78.6863C247.56 80.9322 250.115 83.4951 252.951 85.4779C255.804 87.4729 259.105 89 262.876 89V85ZM298.401 71.4949C293.333 73.5782 288.381 77.1821 283.832 79.9687C279.117 82.8574 274.672 85 270 85V89C275.861 89 281.126 86.3174 285.922 83.3796C290.884 80.3397 295.247 77.116 299.921 75.1946L298.401 71.4949ZM241.599 108.505C246.667 106.422 251.619 102.818 256.168 100.031C260.883 97.1426 265.328 95 270 95V91C264.139 91 258.874 93.6826 254.078 96.6204C249.116 99.6603 244.753 102.884 240.079 104.805L241.599 108.505ZM229 54C229 58.6723 226.857 63.1167 223.969 67.8324C221.182 72.3814 217.578 77.3326 215.495 82.4005L219.195 83.9213C221.116 79.2469 224.34 74.8843 227.38 69.9218C230.317 65.126 233 59.861 233 54H229ZM270 95C274.672 95 279.117 97.1426 283.832 100.031C288.381 102.818 293.333 106.422 298.401 108.505L299.921 104.805C295.247 102.884 290.884 99.6603 285.922 96.6204C281.126 93.6826 275.861 91 270 91V95ZM248.142 75.8579C245.848 73.5633 243.547 71.255 241.8 68.7574C240.067 66.2775 239 63.7743 239 61.1242H235C235 64.8953 236.527 68.1958 238.522 71.0494C240.505 73.8854 243.068 76.4404 245.314 78.6863L248.142 75.8579ZM215.495 25.5995C217.578 30.6674 221.182 35.6186 223.969 40.1676C226.857 44.8834 229 49.3277 229 54H233C233 48.139 230.317 42.874 227.38 38.0782C224.34 33.1157 221.116 28.753 219.195 24.0787L215.495 25.5995ZM248.805 24.0787C246.884 28.7531 243.66 33.1157 240.62 38.0782C237.683 42.874 235 48.139 235 54H239C239 49.3277 241.143 44.8834 244.031 40.1676C246.818 35.6186 250.422 30.6674 252.505 25.5995L248.805 24.0787Z" fill="#F1F9FB" mask="url(#path-20-inside-1_28_945)"/>
<mask id="path-22-inside-2_28_945" fill="white">
<path fill-rule="evenodd" clip-rule="evenodd" d="M165 270C165 280.533 174.651 289.419 178.655 299.161C179.522 301.27 180 303.579 180 306C180 315.941 171.941 324 162 324C152.059 324 144 315.941 144 306C144 303.579 144.478 301.27 145.345 299.161C149.349 289.419 159 280.533 159 270C159 259.467 149.349 250.581 145.345 240.839C144.478 238.73 144 236.421 144 234C144 224.059 152.059 216 162 216C164.421 216 166.73 216.478 168.839 217.345C178.581 221.349 187.467 231 198 231C208.533 231 217.419 221.349 227.161 217.345C229.27 216.478 231.579 216 234 216C243.941 216 252 224.059 252 234C252 243.941 243.941 252 234 252C231.579 252 229.27 251.522 227.161 250.655C217.419 246.651 208.533 237 198 237H190.876C184.455 237 179.268 242.187 174.728 246.728C170.187 251.268 165 256.455 165 262.876V270Z"/>
</mask>
<path d="M145.345 240.839L143.495 241.599L145.345 240.839ZM227.161 217.345L226.401 215.495L227.161 217.345ZM178 306C178 303.844 177.575 301.793 176.805 299.921L180.505 298.401C181.469 300.746 182 303.314 182 306H178ZM162 322C170.837 322 178 314.837 178 306H182C182 317.046 173.046 326 162 326V322ZM146 306C146 314.837 153.163 322 162 322V326C150.954 326 142 317.046 142 306H146ZM147.195 299.921C146.425 301.793 146 303.844 146 306H142C142 303.314 142.531 300.746 143.495 298.401L147.195 299.921ZM146 234C146 236.156 146.425 238.207 147.195 240.079L143.495 241.599C142.531 239.254 142 236.686 142 234H146ZM162 218C153.163 218 146 225.163 146 234H142C142 222.954 150.954 214 162 214V218ZM168.079 219.195C166.207 218.425 164.156 218 162 218V214C164.686 214 167.254 214.531 169.599 215.495L168.079 219.195ZM234 218C231.844 218 229.793 218.425 227.921 219.195L226.401 215.495C228.746 214.531 231.314 214 234 214V218ZM250 234C250 225.163 242.837 218 234 218V214C245.046 214 254 222.954 254 234H250ZM234 250C242.837 250 250 242.837 250 234H254C254 245.046 245.046 254 234 254V250ZM227.921 248.805C229.793 249.575 231.844 250 234 250V254C231.314 254 228.746 253.469 226.401 252.505L227.921 248.805ZM190.876 235H198V239H190.876V235ZM163 270V262.876H167V270H163ZM190.876 239C188.226 239 185.723 240.067 183.243 241.8C180.745 243.547 178.437 245.848 176.142 248.142L173.314 245.314C175.56 243.068 178.115 240.505 180.951 238.522C183.804 236.527 187.105 235 190.876 235V239ZM226.401 252.505C221.333 250.422 216.381 246.818 211.832 244.031C207.117 241.143 202.672 239 198 239V235C203.861 235 209.126 237.683 213.922 240.62C218.884 243.66 223.247 246.884 227.921 248.805L226.401 252.505ZM169.599 215.495C174.667 217.578 179.619 221.182 184.168 223.969C188.883 226.857 193.328 229 198 229V233C192.139 233 186.874 230.317 182.078 227.38C177.116 224.34 172.753 221.116 168.079 219.195L169.599 215.495ZM157 270C157 265.328 154.857 260.883 151.969 256.168C149.182 251.619 145.578 246.667 143.495 241.599L147.195 240.079C149.116 244.753 152.34 249.116 155.38 254.078C158.317 258.874 161 264.139 161 270H157ZM198 229C202.672 229 207.117 226.857 211.832 223.969C216.381 221.182 221.333 217.578 226.401 215.495L227.921 219.195C223.247 221.116 218.884 224.34 213.922 227.38C209.126 230.317 203.861 233 198 233V229ZM176.142 248.142C173.848 250.437 171.547 252.745 169.8 255.243C168.067 257.723 167 260.226 167 262.876H163C163 259.105 164.527 255.804 166.522 252.951C168.505 250.115 171.068 247.56 173.314 245.314L176.142 248.142ZM143.495 298.401C145.578 293.333 149.182 288.381 151.969 283.832C154.857 279.117 157 274.672 157 270H161C161 275.861 158.317 281.126 155.38 285.922C152.34 290.884 149.116 295.247 147.195 299.921L143.495 298.401ZM176.805 299.921C174.884 295.247 171.66 290.884 168.62 285.922C165.683 281.126 163 275.861 163 270H167C167 274.672 169.143 279.117 172.031 283.832C174.818 288.381 178.422 293.333 180.505 298.401L176.805 299.921Z" fill="#F1F9FB" mask="url(#path-22-inside-2_28_945)"/>
<mask id="path-24-inside-3_28_945" fill="white">
<path fill-rule="evenodd" clip-rule="evenodd" d="M126.5 165C116.255 165 107.662 174.3 98.2988 178.459C96.068 179.449 93.5983 180 91 180C81.0589 180 73 171.941 73 162C73 152.059 81.0589 144 91 144C93.5983 144 96.068 144.551 98.2988 145.541C107.662 149.7 116.255 159 126.5 159C136.745 159 145.338 149.7 154.701 145.541C156.932 144.551 159.402 144 162 144C171.941 144 180 152.059 180 162C180 171.941 171.941 180 162 180C159.402 180 156.932 179.449 154.701 178.459C145.338 174.3 136.745 165 126.5 165Z"/>
</mask>
<path d="M98.2988 178.459L97.487 176.631L98.2988 178.459ZM91 182C93.8833 182 96.6291 181.389 99.1106 180.287L97.487 176.631C95.5068 177.51 93.3133 178 91 178V182ZM71 162C71 173.046 79.9543 182 91 182V178C82.1634 178 75 170.837 75 162H71ZM91 142C79.9543 142 71 150.954 71 162H75C75 153.163 82.1634 146 91 146V142ZM99.1106 143.713C96.6291 142.611 93.8833 142 91 142V146C93.3133 146 95.5068 146.49 97.487 147.369L99.1106 143.713ZM162 142C159.117 142 156.371 142.611 153.889 143.713L155.513 147.369C157.493 146.49 159.687 146 162 146V142ZM182 162C182 150.954 173.046 142 162 142V146C170.837 146 178 153.163 178 162H182ZM162 182C173.046 182 182 173.046 182 162H178C178 170.837 170.837 178 162 178V182ZM153.889 180.287C156.371 181.389 159.117 182 162 182V178C159.687 178 157.493 177.51 155.513 176.631L153.889 180.287ZM126.5 161C132.215 161 137.333 158.407 141.983 155.531C146.804 152.549 150.994 149.376 155.513 147.369L153.889 143.713C149.046 145.865 144.257 149.421 139.879 152.129C135.331 154.942 131.029 157 126.5 157V161ZM155.513 176.631C150.994 174.624 146.804 171.451 141.983 168.469C137.333 165.593 132.215 163 126.5 163V167C131.029 167 135.331 169.058 139.879 171.871C144.257 174.579 149.046 178.135 153.889 180.287L155.513 176.631ZM97.487 147.369C102.006 149.376 106.196 152.549 111.017 155.531C115.667 158.407 120.785 161 126.5 161V157C121.971 157 117.669 154.942 113.121 152.129C108.743 149.421 103.954 145.865 99.1106 143.713L97.487 147.369ZM99.1106 180.287C103.954 178.135 108.743 174.579 113.121 171.871C117.669 169.058 121.971 167 126.5 167V163C120.785 163 115.667 165.593 111.017 168.469C106.196 171.451 102.006 174.624 97.487 176.631L99.1106 180.287Z" fill="#F1F9FB" mask="url(#path-24-inside-3_28_945)"/>
<mask id="path-26-inside-4_28_945" fill="white">
<path fill-rule="evenodd" clip-rule="evenodd" d="M381 269.5C381 279.745 390.3 288.338 394.459 297.701C395.449 299.932 396 302.402 396 305C396 314.941 387.941 323 378 323C368.059 323 360 314.941 360 305C360 302.402 360.551 299.932 361.541 297.701C365.7 288.338 375 279.745 375 269.5C375 259.255 365.7 250.662 361.541 241.299C360.551 239.068 360 236.598 360 234C360 224.059 368.059 216 378 216C387.941 216 396 224.059 396 234C396 236.598 395.449 239.068 394.459 241.299C390.3 250.662 381 259.255 381 269.5Z"/>
</mask>
<path d="M394.459 297.701L392.631 298.513L394.459 297.701ZM398 305C398 302.117 397.389 299.371 396.287 296.889L392.631 298.513C393.51 300.493 394 302.687 394 305H398ZM378 325C389.046 325 398 316.046 398 305H394C394 313.837 386.837 321 378 321V325ZM358 305C358 316.046 366.954 325 378 325V321C369.163 321 362 313.837 362 305H358ZM359.713 296.889C358.611 299.371 358 302.117 358 305H362C362 302.687 362.49 300.493 363.369 298.513L359.713 296.889ZM358 234C358 236.883 358.611 239.629 359.713 242.111L363.369 240.487C362.49 238.507 362 236.313 362 234H358ZM378 214C366.954 214 358 222.954 358 234H362C362 225.163 369.163 218 378 218V214ZM398 234C398 222.954 389.046 214 378 214V218C386.837 218 394 225.163 394 234H398ZM396.287 242.111C397.389 239.629 398 236.883 398 234H394C394 236.313 393.51 238.507 392.631 240.487L396.287 242.111ZM377 269.5C377 263.785 374.407 258.667 371.531 254.017C368.549 249.196 365.376 245.006 363.369 240.487L359.713 242.111C361.865 246.954 365.421 251.743 368.129 256.121C370.942 260.669 373 264.971 373 269.5H377ZM392.631 240.487C390.624 245.006 387.451 249.196 384.469 254.017C381.593 258.667 379 263.785 379 269.5H383C383 264.971 385.058 260.669 387.871 256.121C390.579 251.743 394.135 246.954 396.287 242.111L392.631 240.487ZM363.369 298.513C365.376 293.994 368.549 289.804 371.531 284.983C374.407 280.333 377 275.215 377 269.5H373C373 274.029 370.942 278.331 368.129 282.879C365.421 287.257 361.865 292.046 359.713 296.889L363.369 298.513ZM396.287 296.889C394.135 292.046 390.579 287.257 387.871 282.879C385.058 278.331 383 274.029 383 269.5H379C379 275.215 381.593 280.333 384.469 284.983C387.451 289.804 390.624 293.994 392.631 298.513L396.287 296.889Z" fill="#F1F9FB" mask="url(#path-26-inside-4_28_945)"/>
<mask id="path-28-inside-5_28_945" fill="white">
<path fill-rule="evenodd" clip-rule="evenodd" d="M413.5 21C403.255 21 394.662 30.3005 385.299 34.4587C383.068 35.4495 380.598 36 378 36C368.059 36 360 27.9411 360 18C360 8.05887 368.059 0 378 0C380.598 0 383.068 0.55052 385.299 1.54128C394.662 5.69953 403.255 15 413.5 15C423.745 15 432.338 5.69953 441.701 1.54128C443.932 0.550521 446.402 0 449 0C458.941 0 467 8.05887 467 18C467 27.9411 458.941 36 449 36C446.402 36 443.932 35.4495 441.701 34.4587C432.338 30.3005 423.745 21 413.5 21Z"/>
</mask>
<path d="M385.299 34.4587L384.487 32.6309L385.299 34.4587ZM378 38C380.883 38 383.629 37.3886 386.111 36.2866L384.487 32.6309C382.507 33.5103 380.313 34 378 34V38ZM358 18C358 29.0457 366.954 38 378 38V34C369.163 34 362 26.8366 362 18H358ZM378 -2C366.954 -2 358 6.9543 358 18H362C362 9.16344 369.163 2 378 2V-2ZM386.111 -0.286563C383.629 -1.38864 380.883 -2 378 -2V2C380.313 2 382.507 2.48968 384.487 3.36912L386.111 -0.286563ZM449 -2C446.117 -2 443.371 -1.38864 440.889 -0.286559L442.513 3.36912C444.493 2.48968 446.687 2 449 2V-2ZM469 18C469 6.9543 460.046 -2 449 -2V2C457.837 2 465 9.16344 465 18L469 18ZM449 38C460.046 38 469 29.0457 469 18L465 18C465 26.8366 457.837 34 449 34V38ZM440.889 36.2866C443.371 37.3886 446.117 38 449 38V34C446.687 34 444.493 33.5103 442.513 32.6309L440.889 36.2866ZM413.5 17C419.215 17 424.333 14.4074 428.983 11.5309C433.804 8.54884 437.994 5.37613 442.513 3.36912L440.889 -0.286559C436.046 1.86469 431.257 5.42133 426.879 8.12907C422.331 10.9424 418.029 13 413.5 13V17ZM442.513 32.6309C437.994 30.6239 433.804 27.4512 428.983 24.4691C424.333 21.5926 419.215 19 413.5 19V23C418.029 23 422.331 25.0576 426.879 27.8709C431.257 30.5787 436.046 34.1353 440.889 36.2866L442.513 32.6309ZM384.487 3.36912C389.006 5.37613 393.196 8.54884 398.017 11.5309C402.667 14.4074 407.785 17 413.5 17V13C408.971 13 404.669 10.9424 400.121 8.12907C395.743 5.42133 390.954 1.86468 386.111 -0.286563L384.487 3.36912ZM386.111 36.2866C390.954 34.1353 395.743 30.5787 400.121 27.8709C404.669 25.0576 408.971 23 413.5 23V19C407.785 19 402.667 21.5926 398.017 24.4691C393.196 27.4512 389.006 30.6239 384.487 32.6309L386.111 36.2866Z" fill="#F1F9FB" mask="url(#path-28-inside-5_28_945)"/>
</svg>
