<svg width="539" height="396" viewBox="0 0 539 396" fill="none" xmlns="http://www.w3.org/2000/svg">
<circle cx="18" cy="18" r="17" transform="matrix(1 0 0 -1 72 396)" stroke="white" stroke-width="2"/>
<circle cx="18" cy="18" r="17" transform="matrix(1 0 0 -1 144 396)" stroke="white" stroke-width="2"/>
<circle cx="18" cy="18" r="17" transform="matrix(1 0 0 -1 144 324)" stroke="white" stroke-width="2"/>
<circle cx="18" cy="18" r="17" transform="matrix(1 0 0 -1 72 324)" stroke="white" stroke-width="2"/>
<circle cx="18" cy="18" r="17" transform="matrix(1 0 0 -1 0 396)" stroke="white" stroke-width="2"/>
<circle cx="18" cy="18" r="17" transform="matrix(1 0 0 -1 216 252)" stroke="white" stroke-width="2"/>
<circle cx="18" cy="18" r="17" transform="matrix(1 0 0 -1 72 180)" stroke="white" stroke-width="2"/>
<circle cx="18" cy="18" r="17" transform="matrix(1 0 0 -1 1 252)" stroke="white" stroke-width="2"/>
<circle cx="18" cy="18" r="17" transform="matrix(1 0 0 -1 288 252)" stroke="white" stroke-width="2"/>
<circle cx="18" cy="18" r="17" transform="matrix(1 0 0 -1 216 108)" stroke="white" stroke-width="2"/>
<circle cx="18" cy="18" r="17" transform="matrix(1 0 0 -1 288 396)" stroke="white" stroke-width="2"/>
<circle cx="18" cy="18" r="17" transform="matrix(1 0 0 -1 432 324)" stroke="white" stroke-width="2"/>
<circle cx="18" cy="18" r="17" transform="matrix(1 0 0 -1 503 396)" stroke="white" stroke-width="2"/>
<circle cx="18" cy="18" r="17" transform="matrix(1 0 0 -1 432 252)" stroke="white" stroke-width="2"/>
<circle cx="18" cy="18" r="17" transform="matrix(1 0 0 -1 288 180)" stroke="white" stroke-width="2"/>
<circle cx="18" cy="18" r="17" transform="matrix(1 0 0 -1 288 108)" stroke="white" stroke-width="2"/>
<circle cx="18" cy="18" r="17" transform="matrix(1 0 0 -1 288 36)" stroke="white" stroke-width="2"/>
<circle cx="18" cy="18" r="17" transform="matrix(1 0 0 -1 360 324)" stroke="white" stroke-width="2"/>
<circle cx="18" cy="18" r="17" transform="matrix(1 0 0 -1 360 252)" stroke="white" stroke-width="2"/>
<mask id="path-20-inside-1_34_1096" fill="white">
<path fill-rule="evenodd" clip-rule="evenodd" d="M237 342C237 352.533 246.651 361.419 250.655 371.161C251.522 373.27 252 375.579 252 378C252 387.941 243.941 396 234 396C224.059 396 216 387.941 216 378C216 375.579 216.478 373.27 217.345 371.161C221.349 361.419 231 352.533 231 342C231 331.467 221.349 322.581 217.345 312.839C216.478 310.73 216 308.421 216 306C216 296.059 224.059 288 234 288C236.421 288 238.73 288.478 240.839 289.345C250.581 293.349 259.467 303 270 303C280.533 303 289.419 293.349 299.161 289.345C301.27 288.478 303.579 288 306 288C315.941 288 324 296.059 324 306C324 315.941 315.941 324 306 324C303.579 324 301.27 323.522 299.161 322.655C289.419 318.651 280.533 309 270 309H262.876C256.455 309 251.268 314.187 246.728 318.728C242.187 323.268 237 328.455 237 334.876V342Z"/>
</mask>
<path d="M217.345 312.839L215.495 313.599L217.345 312.839ZM299.161 289.345L298.401 287.495L299.161 289.345ZM250 378C250 375.844 249.575 373.793 248.805 371.921L252.505 370.401C253.469 372.746 254 375.314 254 378H250ZM234 394C242.837 394 250 386.837 250 378H254C254 389.046 245.046 398 234 398V394ZM218 378C218 386.837 225.163 394 234 394V398C222.954 398 214 389.046 214 378H218ZM219.195 371.921C218.425 373.793 218 375.844 218 378H214C214 375.314 214.531 372.746 215.495 370.401L219.195 371.921ZM218 306C218 308.156 218.425 310.207 219.195 312.079L215.495 313.599C214.531 311.254 214 308.686 214 306H218ZM234 290C225.163 290 218 297.163 218 306H214C214 294.954 222.954 286 234 286V290ZM240.079 291.195C238.207 290.425 236.156 290 234 290V286C236.686 286 239.254 286.531 241.599 287.495L240.079 291.195ZM306 290C303.844 290 301.793 290.425 299.921 291.195L298.401 287.495C300.746 286.531 303.314 286 306 286V290ZM322 306C322 297.163 314.837 290 306 290V286C317.046 286 326 294.954 326 306H322ZM306 322C314.837 322 322 314.837 322 306H326C326 317.046 317.046 326 306 326V322ZM299.921 320.805C301.793 321.575 303.844 322 306 322V326C303.314 326 300.746 325.469 298.401 324.505L299.921 320.805ZM262.876 307H270V311H262.876V307ZM235 342V334.876H239V342H235ZM262.876 311C260.226 311 257.723 312.067 255.243 313.8C252.745 315.547 250.437 317.848 248.142 320.142L245.314 317.314C247.56 315.068 250.115 312.505 252.951 310.522C255.804 308.527 259.105 307 262.876 307V311ZM298.401 324.505C293.333 322.422 288.381 318.818 283.832 316.031C279.117 313.143 274.672 311 270 311V307C275.861 307 281.126 309.683 285.922 312.62C290.884 315.66 295.247 318.884 299.921 320.805L298.401 324.505ZM241.599 287.495C246.667 289.578 251.619 293.182 256.168 295.969C260.883 298.857 265.328 301 270 301V305C264.139 305 258.874 302.317 254.078 299.38C249.116 296.34 244.753 293.116 240.079 291.195L241.599 287.495ZM229 342C229 337.328 226.857 332.883 223.969 328.168C221.182 323.619 217.578 318.667 215.495 313.599L219.195 312.079C221.116 316.753 224.34 321.116 227.38 326.078C230.317 330.874 233 336.139 233 342H229ZM270 301C274.672 301 279.117 298.857 283.832 295.969C288.381 293.182 293.333 289.578 298.401 287.495L299.921 291.195C295.247 293.116 290.884 296.34 285.922 299.38C281.126 302.317 275.861 305 270 305V301ZM248.142 320.142C245.848 322.437 243.547 324.745 241.8 327.243C240.067 329.723 239 332.226 239 334.876H235C235 331.105 236.527 327.804 238.522 324.951C240.505 322.115 243.068 319.56 245.314 317.314L248.142 320.142ZM215.495 370.401C217.578 365.333 221.182 360.381 223.969 355.832C226.857 351.117 229 346.672 229 342H233C233 347.861 230.317 353.126 227.38 357.922C224.34 362.884 221.116 367.247 219.195 371.921L215.495 370.401ZM248.805 371.921C246.884 367.247 243.66 362.884 240.62 357.922C237.683 353.126 235 347.861 235 342H239C239 346.672 241.143 351.117 244.031 355.832C246.818 360.381 250.422 365.333 252.505 370.401L248.805 371.921Z" fill="white" mask="url(#path-20-inside-1_34_1096)"/>
<mask id="path-22-inside-2_34_1096" fill="white">
<path fill-rule="evenodd" clip-rule="evenodd" d="M165 126C165 115.467 174.651 106.581 178.655 96.8391C179.522 94.7305 180 92.4211 180 90C180 80.0589 171.941 72 162 72C152.059 72 144 80.0589 144 90C144 92.4211 144.478 94.7305 145.345 96.8391C149.349 106.581 159 115.467 159 126C159 136.533 149.349 145.419 145.345 155.161C144.478 157.27 144 159.579 144 162C144 171.941 152.059 180 162 180C164.421 180 166.73 179.522 168.839 178.655C178.581 174.651 187.467 165 198 165C208.533 165 217.419 174.651 227.161 178.655C229.27 179.522 231.579 180 234 180C243.941 180 252 171.941 252 162C252 152.059 243.941 144 234 144C231.579 144 229.27 144.478 227.161 145.345C217.419 149.349 208.533 159 198 159H190.876C184.455 159 179.268 153.813 174.728 149.272C170.187 144.732 165 139.545 165 133.124V126Z"/>
</mask>
<path d="M145.345 155.161L143.495 154.401L145.345 155.161ZM227.161 178.655L226.401 180.505L227.161 178.655ZM178 90C178 92.1557 177.575 94.2072 176.805 96.0787L180.505 97.5995C181.469 95.2538 182 92.6864 182 90H178ZM162 74C170.837 74 178 81.1634 178 90H182C182 78.9543 173.046 70 162 70V74ZM146 90C146 81.1634 153.163 74 162 74V70C150.954 70 142 78.9543 142 90H146ZM147.195 96.0787C146.425 94.2072 146 92.1557 146 90H142C142 92.6864 142.531 95.2538 143.495 97.5995L147.195 96.0787ZM146 162C146 159.844 146.425 157.793 147.195 155.921L143.495 154.401C142.531 156.746 142 159.314 142 162H146ZM162 178C153.163 178 146 170.837 146 162H142C142 173.046 150.954 182 162 182V178ZM168.079 176.805C166.207 177.575 164.156 178 162 178V182C164.686 182 167.254 181.469 169.599 180.505L168.079 176.805ZM234 178C231.844 178 229.793 177.575 227.921 176.805L226.401 180.505C228.746 181.469 231.314 182 234 182V178ZM250 162C250 170.837 242.837 178 234 178V182C245.046 182 254 173.046 254 162H250ZM234 146C242.837 146 250 153.163 250 162H254C254 150.954 245.046 142 234 142V146ZM227.921 147.195C229.793 146.425 231.844 146 234 146V142C231.314 142 228.746 142.531 226.401 143.495L227.921 147.195ZM190.876 161H198V157H190.876V161ZM163 126V133.124H167V126H163ZM190.876 157C188.226 157 185.723 155.933 183.243 154.2C180.745 152.453 178.437 150.152 176.142 147.858L173.314 150.686C175.56 152.932 178.115 155.495 180.951 157.478C183.804 159.473 187.105 161 190.876 161V157ZM226.401 143.495C221.333 145.578 216.381 149.182 211.832 151.969C207.117 154.857 202.672 157 198 157V161C203.861 161 209.126 158.317 213.922 155.38C218.884 152.34 223.247 149.116 227.921 147.195L226.401 143.495ZM169.599 180.505C174.667 178.422 179.619 174.818 184.168 172.031C188.883 169.143 193.328 167 198 167V163C192.139 163 186.874 165.683 182.078 168.62C177.116 171.66 172.753 174.884 168.079 176.805L169.599 180.505ZM157 126C157 130.672 154.857 135.117 151.969 139.832C149.182 144.381 145.578 149.333 143.495 154.401L147.195 155.921C149.116 151.247 152.34 146.884 155.38 141.922C158.317 137.126 161 131.861 161 126H157ZM198 167C202.672 167 207.117 169.143 211.832 172.031C216.381 174.818 221.333 178.422 226.401 180.505L227.921 176.805C223.247 174.884 218.884 171.66 213.922 168.62C209.126 165.683 203.861 163 198 163V167ZM176.142 147.858C173.848 145.563 171.547 143.255 169.8 140.757C168.067 138.277 167 135.774 167 133.124H163C163 136.895 164.527 140.196 166.522 143.049C168.505 145.885 171.068 148.44 173.314 150.686L176.142 147.858ZM143.495 97.5995C145.578 102.667 149.182 107.619 151.969 112.168C154.857 116.883 157 121.328 157 126H161C161 120.139 158.317 114.874 155.38 110.078C152.34 105.116 149.116 100.753 147.195 96.0787L143.495 97.5995ZM176.805 96.0787C174.884 100.753 171.66 105.116 168.62 110.078C165.683 114.874 163 120.139 163 126H167C167 121.328 169.143 116.883 172.031 112.168C174.818 107.619 178.422 102.667 180.505 97.5995L176.805 96.0787Z" fill="white" mask="url(#path-22-inside-2_34_1096)"/>
<mask id="path-24-inside-3_34_1096" fill="white">
<path fill-rule="evenodd" clip-rule="evenodd" d="M126.5 231C116.255 231 107.662 221.7 98.2988 217.541C96.068 216.551 93.5983 216 91 216C81.0589 216 73 224.059 73 234C73 243.941 81.0589 252 91 252C93.5983 252 96.068 251.449 98.2988 250.459C107.662 246.3 116.255 237 126.5 237C136.745 237 145.338 246.3 154.701 250.459C156.932 251.449 159.402 252 162 252C171.941 252 180 243.941 180 234C180 224.059 171.941 216 162 216C159.402 216 156.932 216.551 154.701 217.541C145.338 221.7 136.745 231 126.5 231Z"/>
</mask>
<path d="M98.2988 217.541L97.487 219.369L98.2988 217.541ZM91 214C93.8833 214 96.6291 214.611 99.1106 215.713L97.487 219.369C95.5068 218.49 93.3133 218 91 218V214ZM71 234C71 222.954 79.9543 214 91 214V218C82.1634 218 75 225.163 75 234H71ZM91 254C79.9543 254 71 245.046 71 234H75C75 242.837 82.1634 250 91 250V254ZM99.1106 252.287C96.6291 253.389 93.8833 254 91 254V250C93.3133 250 95.5068 249.51 97.487 248.631L99.1106 252.287ZM162 254C159.117 254 156.371 253.389 153.889 252.287L155.513 248.631C157.493 249.51 159.687 250 162 250V254ZM182 234C182 245.046 173.046 254 162 254V250C170.837 250 178 242.837 178 234H182ZM162 214C173.046 214 182 222.954 182 234H178C178 225.163 170.837 218 162 218V214ZM153.889 215.713C156.371 214.611 159.117 214 162 214V218C159.687 218 157.493 218.49 155.513 219.369L153.889 215.713ZM126.5 235C132.215 235 137.333 237.593 141.983 240.469C146.804 243.451 150.994 246.624 155.513 248.631L153.889 252.287C149.046 250.135 144.257 246.579 139.879 243.871C135.331 241.058 131.029 239 126.5 239V235ZM155.513 219.369C150.994 221.376 146.804 224.549 141.983 227.531C137.333 230.407 132.215 233 126.5 233V229C131.029 229 135.331 226.942 139.879 224.129C144.257 221.421 149.046 217.865 153.889 215.713L155.513 219.369ZM97.487 248.631C102.006 246.624 106.196 243.451 111.017 240.469C115.667 237.593 120.785 235 126.5 235V239C121.971 239 117.669 241.058 113.121 243.871C108.743 246.579 103.954 250.135 99.1106 252.287L97.487 248.631ZM99.1106 215.713C103.954 217.865 108.743 221.421 113.121 224.129C117.669 226.942 121.971 229 126.5 229V233C120.785 233 115.667 230.407 111.017 227.531C106.196 224.549 102.006 221.376 97.487 219.369L99.1106 215.713Z" fill="white" mask="url(#path-24-inside-3_34_1096)"/>
<mask id="path-26-inside-4_34_1096" fill="white">
<path fill-rule="evenodd" clip-rule="evenodd" d="M381 126.5C381 116.255 390.3 107.662 394.459 98.2988C395.449 96.068 396 93.5983 396 91C396 81.0589 387.941 73 378 73C368.059 73 360 81.0589 360 91C360 93.5983 360.551 96.068 361.541 98.2988C365.7 107.662 375 116.255 375 126.5C375 136.745 365.7 145.338 361.541 154.701C360.551 156.932 360 159.402 360 162C360 171.941 368.059 180 378 180C387.941 180 396 171.941 396 162C396 159.402 395.449 156.932 394.459 154.701C390.3 145.338 381 136.745 381 126.5Z"/>
</mask>
<path d="M394.459 98.2988L392.631 97.487L394.459 98.2988ZM398 91C398 93.8833 397.389 96.6291 396.287 99.1106L392.631 97.487C393.51 95.5068 394 93.3133 394 91H398ZM378 71C389.046 71 398 79.9543 398 91H394C394 82.1634 386.837 75 378 75V71ZM358 91C358 79.9543 366.954 71 378 71V75C369.163 75 362 82.1634 362 91H358ZM359.713 99.1106C358.611 96.6291 358 93.8833 358 91H362C362 93.3133 362.49 95.5068 363.369 97.487L359.713 99.1106ZM358 162C358 159.117 358.611 156.371 359.713 153.889L363.369 155.513C362.49 157.493 362 159.687 362 162H358ZM378 182C366.954 182 358 173.046 358 162H362C362 170.837 369.163 178 378 178V182ZM398 162C398 173.046 389.046 182 378 182V178C386.837 178 394 170.837 394 162H398ZM396.287 153.889C397.389 156.371 398 159.117 398 162H394C394 159.687 393.51 157.493 392.631 155.513L396.287 153.889ZM377 126.5C377 132.215 374.407 137.333 371.531 141.983C368.549 146.804 365.376 150.994 363.369 155.513L359.713 153.889C361.865 149.046 365.421 144.257 368.129 139.879C370.942 135.331 373 131.029 373 126.5H377ZM392.631 155.513C390.624 150.994 387.451 146.804 384.469 141.983C381.593 137.333 379 132.215 379 126.5H383C383 131.029 385.058 135.331 387.871 139.879C390.579 144.257 394.135 149.046 396.287 153.889L392.631 155.513ZM363.369 97.487C365.376 102.006 368.549 106.196 371.531 111.017C374.407 115.667 377 120.785 377 126.5H373C373 121.971 370.942 117.669 368.129 113.121C365.421 108.743 361.865 103.954 359.713 99.1106L363.369 97.487ZM396.287 99.1106C394.135 103.954 390.579 108.743 387.871 113.121C385.058 117.669 383 121.971 383 126.5H379C379 120.785 381.593 115.667 384.469 111.017C387.451 106.196 390.624 102.006 392.631 97.487L396.287 99.1106Z" fill="white" mask="url(#path-26-inside-4_34_1096)"/>
<mask id="path-28-inside-5_34_1096" fill="white">
<path fill-rule="evenodd" clip-rule="evenodd" d="M413.5 375C403.255 375 394.662 365.7 385.299 361.541C383.068 360.551 380.598 360 378 360C368.059 360 360 368.059 360 378C360 387.941 368.059 396 378 396C380.598 396 383.068 395.449 385.299 394.459C394.662 390.3 403.255 381 413.5 381C423.745 381 432.338 390.3 441.701 394.459C443.932 395.449 446.402 396 449 396C458.941 396 467 387.941 467 378C467 368.059 458.941 360 449 360C446.402 360 443.932 360.551 441.701 361.541C432.338 365.7 423.745 375 413.5 375Z"/>
</mask>
<path d="M385.299 361.541L384.487 363.369L385.299 361.541ZM378 358C380.883 358 383.629 358.611 386.111 359.713L384.487 363.369C382.507 362.49 380.313 362 378 362V358ZM358 378C358 366.954 366.954 358 378 358V362C369.163 362 362 369.163 362 378H358ZM378 398C366.954 398 358 389.046 358 378H362C362 386.837 369.163 394 378 394V398ZM386.111 396.287C383.629 397.389 380.883 398 378 398V394C380.313 394 382.507 393.51 384.487 392.631L386.111 396.287ZM449 398C446.117 398 443.371 397.389 440.889 396.287L442.513 392.631C444.493 393.51 446.687 394 449 394V398ZM469 378C469 389.046 460.046 398 449 398V394C457.837 394 465 386.837 465 378H469ZM449 358C460.046 358 469 366.954 469 378H465C465 369.163 457.837 362 449 362V358ZM440.889 359.713C443.371 358.611 446.117 358 449 358V362C446.687 362 444.493 362.49 442.513 363.369L440.889 359.713ZM413.5 379C419.215 379 424.333 381.593 428.983 384.469C433.804 387.451 437.994 390.624 442.513 392.631L440.889 396.287C436.046 394.135 431.257 390.579 426.879 387.871C422.331 385.058 418.029 383 413.5 383V379ZM442.513 363.369C437.994 365.376 433.804 368.549 428.983 371.531C424.333 374.407 419.215 377 413.5 377V373C418.029 373 422.331 370.942 426.879 368.129C431.257 365.421 436.046 361.865 440.889 359.713L442.513 363.369ZM384.487 392.631C389.006 390.624 393.196 387.451 398.017 384.469C402.667 381.593 407.785 379 413.5 379V383C408.971 383 404.669 385.058 400.121 387.871C395.743 390.579 390.954 394.135 386.111 396.287L384.487 392.631ZM386.111 359.713C390.954 361.865 395.743 365.421 400.121 368.129C404.669 370.942 408.971 373 413.5 373V377C407.785 377 402.667 374.407 398.017 371.531C393.196 368.549 389.006 365.376 384.487 363.369L386.111 359.713Z" fill="white" mask="url(#path-28-inside-5_34_1096)"/>
</svg>
