<svg width="539" height="396" viewBox="0 0 539 396" fill="none" xmlns="http://www.w3.org/2000/svg">
<circle cx="90" cy="18" r="18" fill="white"/>
<circle cx="162" cy="18" r="18" fill="white"/>
<circle cx="162" cy="90" r="18" fill="white"/>
<circle cx="90" cy="90" r="18" fill="white"/>
<circle cx="18" cy="18" r="18" fill="white"/>
<circle cx="234" cy="162" r="18" fill="white"/>
<circle cx="90" cy="234" r="18" fill="white"/>
<circle cx="19" cy="162" r="18" fill="white"/>
<circle cx="306" cy="162" r="18" fill="white"/>
<circle cx="234" cy="306" r="18" fill="white"/>
<circle cx="306" cy="18" r="18" fill="white"/>
<circle cx="450" cy="90" r="18" fill="white"/>
<circle cx="521" cy="18" r="18" fill="white"/>
<circle cx="450" cy="162" r="18" fill="white"/>
<circle cx="306" cy="234" r="18" fill="white"/>
<circle cx="306" cy="306" r="18" fill="white"/>
<circle cx="306" cy="378" r="18" fill="white"/>
<circle cx="378" cy="90" r="18" fill="white"/>
<circle cx="378" cy="162" r="18" fill="white"/>
<path fill-rule="evenodd" clip-rule="evenodd" d="M237 54C237 43.4667 246.651 34.5814 250.655 24.8391C251.522 22.7305 252 20.4211 252 18C252 8.05887 243.941 0 234 0C224.059 0 216 8.05887 216 18C216 20.4211 216.478 22.7305 217.345 24.8391C221.349 34.5814 231 43.4667 231 54C231 64.5333 221.349 73.4186 217.345 83.1609C216.478 85.2695 216 87.5789 216 90C216 99.9411 224.059 108 234 108C236.421 108 238.73 107.522 240.839 106.655C250.581 102.651 259.467 93 270 93C280.533 93 289.419 102.651 299.161 106.655C301.27 107.522 303.579 108 306 108C315.941 108 324 99.9411 324 90C324 80.0589 315.941 72 306 72C303.579 72 301.27 72.478 299.161 73.3447C289.419 77.3495 280.533 87 270 87H262.876C256.455 87 251.268 81.8126 246.728 77.2721C242.187 72.7316 237 67.5454 237 61.1242V54Z" fill="white"/>
<path fill-rule="evenodd" clip-rule="evenodd" d="M165 270C165 280.533 174.651 289.419 178.655 299.161C179.522 301.27 180 303.579 180 306C180 315.941 171.941 324 162 324C152.059 324 144 315.941 144 306C144 303.579 144.478 301.27 145.345 299.161C149.349 289.419 159 280.533 159 270C159 259.467 149.349 250.581 145.345 240.839C144.478 238.73 144 236.421 144 234C144 224.059 152.059 216 162 216C164.421 216 166.73 216.478 168.839 217.345C178.581 221.349 187.467 231 198 231C208.533 231 217.419 221.349 227.161 217.345C229.27 216.478 231.579 216 234 216C243.941 216 252 224.059 252 234C252 243.941 243.941 252 234 252C231.579 252 229.27 251.522 227.161 250.655C217.419 246.651 208.533 237 198 237H190.876C184.455 237 179.268 242.187 174.728 246.728C170.187 251.268 165 256.455 165 262.876V270Z" fill="white"/>
<path fill-rule="evenodd" clip-rule="evenodd" d="M126.5 165C116.255 165 107.662 174.3 98.2988 178.459C96.068 179.449 93.5983 180 91 180C81.0589 180 73 171.941 73 162C73 152.059 81.0589 144 91 144C93.5983 144 96.068 144.551 98.2988 145.541C107.662 149.7 116.255 159 126.5 159C136.745 159 145.338 149.7 154.701 145.541C156.932 144.551 159.402 144 162 144C171.941 144 180 152.059 180 162C180 171.941 171.941 180 162 180C159.402 180 156.932 179.449 154.701 178.459C145.338 174.3 136.745 165 126.5 165Z" fill="white"/>
<path fill-rule="evenodd" clip-rule="evenodd" d="M381 269.5C381 279.745 390.3 288.338 394.459 297.701C395.449 299.932 396 302.402 396 305C396 314.941 387.941 323 378 323C368.059 323 360 314.941 360 305C360 302.402 360.551 299.932 361.541 297.701C365.7 288.338 375 279.745 375 269.5C375 259.255 365.7 250.662 361.541 241.299C360.551 239.068 360 236.598 360 234C360 224.059 368.059 216 378 216C387.941 216 396 224.059 396 234C396 236.598 395.449 239.068 394.459 241.299C390.3 250.662 381 259.255 381 269.5Z" fill="white"/>
<path fill-rule="evenodd" clip-rule="evenodd" d="M413.5 21C403.255 21 394.662 30.3005 385.299 34.4587C383.068 35.4495 380.598 36 378 36C368.059 36 360 27.9411 360 18C360 8.05887 368.059 0 378 0C380.598 0 383.068 0.55052 385.299 1.54128C394.662 5.69953 403.255 15 413.5 15C423.745 15 432.338 5.69953 441.701 1.54128C443.932 0.550521 446.402 0 449 0C458.941 0 467 8.05887 467 18C467 27.9411 458.941 36 449 36C446.402 36 443.932 35.4495 441.701 34.4587C432.338 30.3005 423.745 21 413.5 21Z" fill="white"/>
</svg>
