<svg width="512" height="102" viewBox="0 0 512 102" fill="none" xmlns="http://www.w3.org/2000/svg">
<g clip-path="url(#clip0_18_853)">
<path d="M504.3 74.2848H511.255V91.6717H508.97V85.015H505.517L501.021 91.6717H498.413L503.033 84.8659C501.841 84.601 500.856 83.9718 500.077 82.9782C499.299 82.0013 498.91 80.9001 498.91 79.6747C498.91 78.1844 499.432 76.9177 500.475 75.8744C501.535 74.8147 502.81 74.2848 504.3 74.2848ZM504.3 82.9285H508.97V76.4457H504.3C503.472 76.4457 502.743 76.7603 502.114 77.3896C501.501 78.0023 501.195 78.764 501.195 79.6747C501.195 80.5855 501.501 81.3555 502.114 81.9847C502.743 82.6139 503.472 82.9285 504.3 82.9285Z" fill="#092227"/>
<path d="M491.19 74.2103C491.041 74.7898 490.851 75.4191 490.619 76.098C490.387 76.7769 490.13 77.4558 489.849 78.1347C489.584 78.7971 489.319 79.4263 489.054 80.0224H487.439C487.555 79.5588 487.671 79.062 487.787 78.5321C487.92 78.0023 488.036 77.4724 488.135 76.9425C488.251 76.396 488.35 75.8662 488.433 75.3528C488.532 74.8395 488.615 74.3676 488.681 73.937H491.016L491.19 74.2103Z" fill="#092227"/>
<path d="M477.449 82.6553C478.26 83.0527 478.898 83.6075 479.361 84.3195C479.825 85.0315 480.057 85.8429 480.057 86.7537C480.057 88.1446 479.568 89.312 478.591 90.2559C477.614 91.1997 476.422 91.6717 475.014 91.6717H467.513V74.2848H474.468C475.842 74.2848 476.993 74.7402 477.921 75.6509C478.864 76.5616 479.336 77.6877 479.336 79.0289C479.336 80.5855 478.707 81.7943 477.449 82.6553ZM474.468 76.4457H469.823V81.7611H474.468C475.197 81.7611 475.809 81.5045 476.306 80.9912C476.803 80.4778 477.051 79.8486 477.051 79.1034C477.051 78.3748 476.795 77.7539 476.281 77.2406C475.784 76.7107 475.18 76.4457 474.468 76.4457ZM469.823 89.5107H475.014C475.793 89.5107 476.447 89.2375 476.977 88.691C477.507 88.1446 477.772 87.474 477.772 86.6791C477.772 85.9009 477.498 85.2385 476.952 84.6921C476.439 84.1456 475.793 83.8724 475.014 83.8724H469.823V89.5107Z" fill="#092227"/>
<path d="M440.519 82.9782C440.519 80.4613 441.388 78.3334 443.127 76.5948C444.866 74.8395 446.993 73.9619 449.51 73.9619C452.027 73.9619 454.155 74.8395 455.894 76.5948C457.649 78.3334 458.527 80.4613 458.527 82.9782C458.527 85.4786 457.649 87.6064 455.894 89.3617C454.155 91.1169 452.027 91.9945 449.51 91.9945C446.993 91.9945 444.866 91.1169 443.127 89.3617C441.388 87.5899 440.519 85.4621 440.519 82.9782ZM456.217 82.9782C456.217 81.0574 455.571 79.4512 454.279 78.1596C453.021 76.8514 451.431 76.1973 449.51 76.1973C447.606 76.1973 446.008 76.8514 444.716 78.1596C443.441 79.4677 442.804 81.0739 442.804 82.9782C442.804 84.8659 443.441 86.4721 444.716 87.7969C446.008 89.0885 447.606 89.7343 449.51 89.7343C451.431 89.7343 453.021 89.0885 454.279 87.7969C455.571 86.4721 456.217 84.8659 456.217 82.9782Z" fill="#092227"/>
<path d="M420.699 74.2848H427.008C428.597 74.2848 429.93 74.823 431.007 75.8993C432.083 76.9756 432.621 78.3003 432.621 79.8734C432.621 81.4465 432.083 82.7712 431.007 83.8476C429.93 84.9239 428.597 85.4621 427.008 85.4621H423.009V91.6717H420.699V74.2848ZM423.009 83.3011H427.008C427.985 83.3011 428.78 82.9782 429.392 82.3324C430.021 81.6535 430.336 80.8338 430.336 79.8734C430.336 78.8799 430.021 78.0602 429.392 77.4144C428.763 76.7686 427.968 76.4457 427.008 76.4457H423.009V83.3011Z" fill="#092227"/>
<path d="M393.704 82.9782C393.704 80.4613 394.574 78.3334 396.312 76.5948C398.051 74.8395 400.179 73.9619 402.696 73.9619C405.213 73.9619 407.341 74.8395 409.079 76.5948C410.835 78.3334 411.712 80.4613 411.712 82.9782C411.712 85.4786 410.835 87.6064 409.079 89.3617C407.341 91.1169 405.213 91.9945 402.696 91.9945C400.179 91.9945 398.051 91.1169 396.312 89.3617C394.574 87.5899 393.704 85.4621 393.704 82.9782ZM409.402 82.9782C409.402 81.0574 408.756 79.4512 407.465 78.1596C406.206 76.8514 404.617 76.1973 402.696 76.1973C400.792 76.1973 399.194 76.8514 397.902 78.1596C396.627 79.4677 395.989 81.0739 395.989 82.9782C395.989 84.8659 396.627 86.4721 397.902 87.7969C399.194 89.0885 400.792 89.7343 402.696 89.7343C404.617 89.7343 406.206 89.0885 407.465 87.7969C408.756 86.4721 409.402 84.8659 409.402 82.9782Z" fill="#092227"/>
<path d="M384.152 74.2848V89.4859H386.015V95H383.705V91.6717H372.23V95H369.92V89.4859H371.435C372.511 88.128 373.049 86.0913 373.049 83.3756V74.2848H384.152ZM374.043 89.4859H381.842V76.4457H375.359V83.4253C375.359 86.0416 374.921 88.0618 374.043 89.4859Z" fill="#092227"/>
<path d="M359.82 82.6802C361.707 83.4915 362.651 84.9073 362.651 86.9275C362.651 88.4178 362.088 89.6349 360.962 90.5788C359.853 91.5226 358.379 91.9945 356.541 91.9945C354.918 91.9945 353.585 91.6385 352.542 90.9265C351.515 90.2145 350.787 89.2375 350.356 87.9956L352.318 86.8778C352.832 88.8318 354.239 89.8088 356.541 89.8088C357.733 89.8088 358.66 89.5438 359.323 89.0139C360.002 88.4841 360.341 87.7637 360.341 86.853C360.341 85.9423 360.027 85.222 359.397 84.6921C358.768 84.1456 357.907 83.8724 356.814 83.8724H354.777V81.7611H356.243C357.286 81.7611 358.122 81.5045 358.751 80.9911C359.397 80.4613 359.72 79.7741 359.72 78.9296C359.72 78.0851 359.422 77.4061 358.826 76.8928C358.23 76.3795 357.418 76.1228 356.392 76.1228C354.471 76.1228 353.188 76.9756 352.542 78.6812L350.605 77.5635C351.648 75.1624 353.577 73.9619 356.392 73.9619C358.064 73.9619 359.414 74.4255 360.441 75.3528C361.484 76.2636 362.005 77.4393 362.005 78.8799C362.005 80.5523 361.277 81.8191 359.82 82.6802Z" fill="#092227"/>
<path d="M311.961 82.9782C311.961 80.4613 312.83 78.3334 314.569 76.5948C316.308 74.8395 318.435 73.9619 320.952 73.9619C323.469 73.9619 325.597 74.8395 327.336 76.5948C329.091 78.3334 329.969 80.4613 329.969 82.9782C329.969 85.4786 329.091 87.6064 327.336 89.3617C325.597 91.1169 323.469 91.9945 320.952 91.9945C318.435 91.9945 316.308 91.1169 314.569 89.3617C312.83 87.5899 311.961 85.4621 311.961 82.9782ZM327.659 82.9782C327.659 81.0574 327.013 79.4512 325.721 78.1596C324.463 76.8514 322.873 76.1973 320.952 76.1973C319.048 76.1973 317.45 76.8514 316.159 78.1596C314.883 79.4677 314.246 81.0739 314.246 82.9782C314.246 84.8659 314.883 86.4721 316.159 87.7969C317.45 89.0885 319.048 89.7343 320.952 89.7343C322.873 89.7343 324.463 89.0885 325.721 87.7969C327.013 86.4721 327.659 84.8659 327.659 82.9782Z" fill="#092227"/>
<path d="M292.141 74.2848H298.45C300.039 74.2848 301.372 74.823 302.449 75.8993C303.525 76.9756 304.063 78.3003 304.063 79.8734C304.063 81.4465 303.525 82.7712 302.449 83.8476C301.372 84.9239 300.039 85.4621 298.45 85.4621H294.451V91.6717H292.141V74.2848ZM294.451 83.3011H298.45C299.427 83.3011 300.222 82.9782 300.834 82.3324C301.463 81.6535 301.778 80.8338 301.778 79.8734C301.778 78.8799 301.463 78.0602 300.834 77.4144C300.205 76.7686 299.41 76.4457 298.45 76.4457H294.451V83.3011Z" fill="#092227"/>
<path d="M269.582 74.2848H282.2V91.6717H279.89V76.4706H271.892V91.6717H269.582V74.2848Z" fill="#092227"/>
<path d="M240.974 82.7298L248.897 91.6717H246.066L238.564 83.326V91.6717H236.254V74.2848H238.564V82.1337L245.817 74.2848H248.649L240.974 82.7298Z" fill="#092227"/>
<path d="M221.424 84.2201L225.597 74.2848H227.932L222.343 87.5485C221.101 90.4629 219.106 91.8372 216.357 91.6717V89.5356C217.301 89.6349 218.071 89.5024 218.667 89.1381C219.28 88.7573 219.785 88.0949 220.182 87.1511L220.356 86.7537L214.469 74.2848H216.804L221.424 84.2201Z" fill="#092227"/>
<path d="M208.37 91.6717H205.911L204.496 87.772H196.672L195.256 91.6717H192.797L199.28 74.2848H201.888L208.37 91.6717ZM200.571 77.0419L197.466 85.6111H203.701L200.571 77.0419Z" fill="#092227"/>
<path d="M182.245 81.6618V74.2848H184.53V91.6717H182.245V83.8476H173.8V91.6717H171.49V74.2848H173.8V81.6618H182.245Z" fill="#092227"/>
<path d="M376.413 48.0134H380.412C382.001 48.0134 383.334 48.5516 384.41 49.6279C385.487 50.7042 386.025 52.029 386.025 53.6021C386.025 55.1917 385.487 56.5247 384.41 57.601C383.351 58.6608 382.018 59.1907 380.412 59.1907H374.103V41.8038H376.413V48.0134ZM376.413 57.0298H380.412C381.372 57.0298 382.167 56.7069 382.796 56.0611C383.425 55.4153 383.74 54.5956 383.74 53.6021C383.74 52.6416 383.425 51.8303 382.796 51.1679C382.183 50.5055 381.388 50.1744 380.412 50.1744H376.413V57.0298Z" fill="#092227"/>
<path d="M361.887 49.1808V41.8038H364.172V59.1907H361.887V51.3666H353.442V59.1907H351.132V41.8038H353.442V49.1808H361.887Z" fill="#092227"/>
<path d="M334.061 51.4908V57.0049H342.134V59.1907H331.751V41.8038H342.009V43.9896H334.061V49.3299H341.388V51.4908H334.061Z" fill="#092227"/>
<path d="M316.273 50.2986L323.252 59.1907H320.62L314.037 50.845V59.1907H311.752V50.845L305.17 59.1907H302.562L309.517 50.2986L302.81 41.8038H305.418L311.752 49.777V41.8038H314.037V49.777L320.371 41.8038H323.004L316.273 50.2986Z" fill="#092227"/>
<path d="M293.24 41.8038V57.0049H295.103V62.519H292.793V59.1907H281.317V62.519H279.007V57.0049H280.523C281.599 55.6471 282.137 53.6103 282.137 50.8947V41.8038H293.24ZM283.131 57.0049H290.93V43.9648H284.447V50.9444C284.447 53.5607 284.008 55.5809 283.131 57.0049Z" fill="#092227"/>
<path d="M268.248 59.1907V41.8038H270.558V59.1907H268.248Z" fill="#092227"/>
<path d="M243.399 59.1907V57.1043C244.574 57.2699 245.436 56.9387 245.982 56.1107C246.545 55.2828 246.826 53.8008 246.826 51.6647V41.8038H258.302V59.1907H255.992V43.9896H249.136V51.6647C249.136 53.2047 248.987 54.5045 248.689 55.5643C248.408 56.6241 247.994 57.4189 247.447 57.9488C246.918 58.4787 246.321 58.843 245.659 59.0417C245.013 59.2238 244.26 59.2735 243.399 59.1907Z" fill="#092227"/>
<path d="M228.951 59.5136C226.301 59.5136 224.124 58.6442 222.418 56.9055C220.713 55.1834 219.86 53.0473 219.86 50.4972C219.86 47.9472 220.713 45.8111 222.418 44.0889C224.124 42.3502 226.301 41.4809 228.951 41.4809C230.524 41.4809 231.981 41.8618 233.322 42.6235C234.664 43.3852 235.707 44.4118 236.452 45.7034L234.44 46.8708C233.943 45.9104 233.198 45.1487 232.205 44.5857C231.228 44.0061 230.143 43.7164 228.951 43.7164C226.931 43.7164 225.291 44.3621 224.033 45.6537C222.774 46.9288 222.145 48.5433 222.145 50.4972C222.145 52.4346 222.774 54.0408 224.033 55.3159C225.291 56.6075 226.931 57.2533 228.951 57.2533C230.143 57.2533 231.228 56.9718 232.205 56.4088C233.198 55.8292 233.943 55.0675 234.44 54.1236L236.452 55.2662C235.723 56.5578 234.688 57.5927 233.347 58.371C232.022 59.1327 230.557 59.5136 228.951 59.5136Z" fill="#092227"/>
<path d="M193.784 50.4972C193.784 47.9803 194.654 45.8525 196.392 44.1138C198.131 42.3585 200.259 41.4809 202.776 41.4809C205.293 41.4809 207.421 42.3585 209.159 44.1138C210.915 45.8525 211.792 47.9803 211.792 50.4972C211.792 52.9976 210.915 55.1254 209.159 56.8807C207.421 58.6359 205.293 59.5136 202.776 59.5136C200.259 59.5136 198.131 58.6359 196.392 56.8807C194.654 55.1089 193.784 52.9811 193.784 50.4972ZM209.482 50.4972C209.482 48.5764 208.837 46.9702 207.545 45.6786C206.286 44.3704 204.697 43.7164 202.776 43.7164C200.872 43.7164 199.274 44.3704 197.982 45.6786C196.707 46.9867 196.07 48.593 196.07 50.4972C196.07 52.3849 196.707 53.9912 197.982 55.3159C199.274 56.6075 200.872 57.2533 202.776 57.2533C204.697 57.2533 206.286 56.6075 207.545 55.3159C208.837 53.9912 209.482 52.3849 209.482 50.4972Z" fill="#092227"/>
<path d="M184.232 41.8038V57.0049H186.095V62.519H183.785V59.1907H172.31V62.519H170V57.0049H171.515C172.591 55.6471 173.13 53.6103 173.13 50.8947V41.8038H184.232ZM174.123 57.0049H181.922V43.9648H175.44V50.9444C175.44 53.5607 175.001 55.5809 174.123 57.0049Z" fill="#092227"/>
<path d="M259.572 9.32288V24.524H261.435V30.0381H259.125V26.7097H247.65V30.0381H245.34V24.524H246.855C247.931 23.1661 248.469 21.1294 248.469 18.4137V9.32288H259.572ZM249.463 24.524H257.262V11.4838H250.779V18.4634C250.779 21.0797 250.341 23.0999 249.463 24.524Z" fill="#092227"/>
<path d="M234.615 16.6999V9.32288H236.9V26.7097H234.615V18.8857H226.169V26.7097H223.859V9.32288H226.169V16.6999H234.615Z" fill="#092227"/>
<path d="M196.865 18.0163C196.865 15.4994 197.734 13.3716 199.473 11.6329C201.212 9.87762 203.34 9 205.856 9C208.373 9 210.501 9.87762 212.24 11.6329C213.995 13.3716 214.873 15.4994 214.873 18.0163C214.873 20.5167 213.995 22.6446 212.24 24.3998C210.501 26.155 208.373 27.0327 205.856 27.0327C203.34 27.0327 201.212 26.155 199.473 24.3998C197.734 22.628 196.865 20.5002 196.865 18.0163ZM212.563 18.0163C212.563 16.0955 211.917 14.4893 210.625 13.1977C209.367 11.8895 207.777 11.2355 205.856 11.2355C203.952 11.2355 202.354 11.8895 201.063 13.1977C199.788 14.5058 199.15 16.1121 199.15 18.0163C199.15 19.904 199.788 21.5103 201.063 22.835C202.354 24.1266 203.952 24.7724 205.856 24.7724C207.777 24.7724 209.367 24.1266 210.625 22.835C211.917 21.5103 212.563 19.904 212.563 18.0163Z" fill="#092227"/>
<path d="M180.805 24.8717V26.834H178.544V24.8717C176.061 24.6896 174.065 24.0107 172.558 22.835C171.068 21.6428 170.323 20.0365 170.323 18.0164C170.323 15.9962 171.068 14.39 172.558 13.1977C174.065 12.022 176.061 11.3431 178.544 11.161V9.19873H180.805V11.161C183.322 11.3431 185.317 12.022 186.791 13.1977C188.298 14.39 189.051 15.9962 189.051 18.0164C189.051 20.0365 188.298 21.6428 186.791 22.835C185.317 24.0107 183.322 24.6896 180.805 24.8717ZM180.805 13.2722V22.7605C182.709 22.628 184.174 22.1644 185.201 21.3695C186.228 20.5581 186.741 19.4404 186.741 18.0164C186.741 16.5923 186.228 15.4828 185.201 14.688C184.174 13.8766 182.709 13.4047 180.805 13.2722ZM174.148 14.688C173.121 15.4828 172.608 16.5923 172.608 18.0164C172.608 19.4404 173.121 20.5499 174.148 21.3447C175.175 22.1395 176.64 22.6032 178.544 22.7356V13.2722C176.64 13.4047 175.175 13.8766 174.148 14.688Z" fill="#092227"/>
<path d="M85.0786 14.0859C88.2712 17.2955 93.5002 17.2933 96.6929 14.0835C99.8856 10.8737 99.8878 5.61361 96.6968 2.40552C93.5058 -0.802564 88.2753 -0.801905 85.0826 2.40789C85.0383 2.4524 84.995 2.49691 84.9523 2.54169C84.933 2.56198 84.9138 2.58231 84.8947 2.60272C84.8792 2.61935 84.8637 2.63603 84.8483 2.65278C82.2738 5.46086 78.5777 6.95742 74.7679 6.94536L62.9684 6.90801C60.0177 6.89868 57.1474 5.71928 55.1423 3.52882C55.1034 3.48612 55.0646 3.44447 55.0251 3.40327C54.9964 3.37328 54.9674 3.34354 54.9378 3.3138C52.2229 0.58755 47.8203 0.587698 45.1397 3.31722C42.4248 6.04663 42.4245 10.4384 45.1363 13.1646C47.848 15.8909 52.2164 15.8906 54.9313 13.1612L54.9607 13.1316C57.0348 11.0213 59.8228 9.77531 62.7813 9.78311L75.2625 9.8226C78.9508 9.83428 82.4433 11.4021 85.0443 14.0482L85.0802 14.0843L85.0786 14.0859Z" fill="url(#paint0_linear_18_853)"/>
<path d="M83.9164 56.4657C87.2845 59.8518 92.7939 59.8374 96.1491 56.4332L96.1892 56.3929C99.1514 53.3745 103.148 51.6068 107.368 51.61L111.437 51.6131C116.098 51.6167 120.625 53.4779 123.782 56.9305C123.822 56.9746 123.864 57.0191 123.905 57.0634C123.947 57.108 123.99 57.1523 124.033 57.1959C127.762 60.9451 133.813 60.911 137.579 57.1598C141.327 53.3915 141.327 47.3082 137.614 43.5419C133.885 39.7927 127.834 39.8268 124.069 43.578L124.026 43.6214C120.839 46.8661 116.543 48.7639 112.004 48.7619L106.975 48.758C102.922 48.7549 99.0803 47.0618 96.2169 44.1738L96.1783 44.135C92.8087 40.7473 87.3008 40.7632 83.9456 44.1675C80.558 47.5732 80.5437 53.1121 83.9133 56.4657H83.9164Z" fill="url(#paint1_linear_18_853)"/>
<path d="M116.807 65.7927C113.443 62.4111 107.942 62.4251 104.591 65.8244L104.525 65.8909C101.636 68.857 97.7149 70.5741 93.5839 70.5707L83.9972 70.5627C80.7319 70.56 77.5856 69.2288 75.3671 66.819C75.3116 66.7601 75.2546 66.6997 75.1976 66.6424C72.3395 63.769 67.688 63.7806 64.7838 66.6693C61.9105 69.558 61.8975 74.2329 64.757 77.1388C67.632 80.0291 72.2651 79.9989 75.1707 77.1118L75.2015 77.0808C77.4746 74.7677 80.5355 73.4076 83.7701 73.4103L93.6186 73.4185C97.7249 73.4219 101.618 75.1393 104.521 78.0668L104.56 78.1056C107.925 81.4888 113.425 81.4732 116.776 78.0739C120.158 74.6731 120.172 69.1419 116.807 65.7927Z" fill="url(#paint2_linear_18_853)"/>
<path d="M84.6973 87.181C87.8621 83.9993 93.0297 83.9814 96.2097 87.1784L96.2113 87.1768C99.3758 90.3583 99.3735 95.5692 96.2087 98.7509C93.0439 101.933 87.8763 101.95 84.6963 98.7535L84.6653 98.7224C82.4323 96.4558 79.4432 95.108 76.2808 95.098L60.4289 95.0482C58.2121 95.0397 56.1279 95.9745 54.5732 97.5531L54.5517 97.5747C52.0251 100.115 47.894 100.117 45.3686 97.5784C42.8431 95.0395 42.8441 90.8847 45.3707 88.3446C47.8973 85.8045 52.0299 85.8035 54.5554 88.3425C54.7735 88.5618 54.9717 88.7951 55.153 89.036C56.6602 91.0522 59.0594 92.1934 61.5584 92.2013L74.9268 92.2433C78.4655 92.2544 81.8653 90.7127 84.044 87.9218C84.2437 87.665 84.462 87.4175 84.6973 87.181Z" fill="url(#paint3_linear_18_853)"/>
<path d="M105 35.379C104.914 35.2924 104.829 35.2043 104.746 35.1146C101.909 32.045 97.8771 30.3868 93.7476 30.3508L84.1099 30.2668C80.8653 30.2385 77.728 31.5003 75.5505 33.8815C75.4828 33.959 75.409 34.0333 75.3351 34.1075C72.4292 36.9944 67.7425 36.9707 64.8393 34.0519C61.9342 31.1004 61.8937 26.4056 64.7839 23.4999C67.6883 20.6115 72.3766 20.6368 75.2798 23.5555L75.3127 23.5886C77.6135 25.9574 80.7101 27.3687 83.9765 27.3972L94.3252 27.4874C98.3289 27.5207 102.107 25.8791 104.897 23.0396L104.935 23.0009C108.285 19.6014 113.829 19.6294 117.247 23.0661C120.666 26.4685 120.695 32.0434 117.312 35.4442C113.962 38.8437 108.417 38.8141 105 35.379Z" fill="url(#paint4_linear_18_853)"/>
<path d="M1.79115 53.4859C3.55908 54.5876 5.87246 54.0449 6.95827 52.2738C8.04406 50.5026 7.49108 48.1737 5.72316 47.072C3.95525 45.9703 1.64185 46.513 0.556054 48.2841C-0.529737 50.0552 0.0232236 52.3841 1.79115 53.4859Z" fill="url(#paint5_linear_18_853)"/>
<path d="M30.4597 31.2184C28.9679 33.3035 26.0703 33.7682 23.9878 32.2565C21.9053 30.7448 21.4265 27.829 22.9184 25.744C24.4102 23.659 27.3077 23.1942 29.3902 24.7059C31.4727 26.2176 31.9515 29.1334 30.4597 31.2184Z" fill="url(#paint6_linear_18_853)"/>
<path d="M23.4939 75.7877C25.3104 77.6139 28.2472 77.6223 30.0535 75.8064C31.8597 73.9905 31.8513 71.038 30.0348 69.2117C28.2182 67.3855 25.2814 67.377 23.4752 69.1929C21.669 71.0088 21.6773 73.9614 23.4939 75.7877Z" fill="url(#paint7_linear_18_853)"/>
<path d="M53.4492 54.0354C51.5386 56.7056 47.8279 57.3008 45.1609 55.3648C42.494 53.4288 41.8808 49.6947 43.7913 47.0245C45.7018 44.3543 49.4126 43.7591 52.0795 45.6951C54.7465 47.631 55.3597 51.3651 53.4492 54.0354Z" fill="url(#paint8_linear_18_853)"/>
</g>
<defs>
<linearGradient id="paint0_linear_18_853" x1="3.48521" y1="50.4013" x2="130.654" y2="50.0393" gradientUnits="userSpaceOnUse">
<stop stop-color="#2995E2"/>
<stop offset="1" stop-color="#00EBD9"/>
</linearGradient>
<linearGradient id="paint1_linear_18_853" x1="3.48551" y1="50.4013" x2="130.654" y2="50.0393" gradientUnits="userSpaceOnUse">
<stop stop-color="#2995E2"/>
<stop offset="1" stop-color="#00EBD9"/>
</linearGradient>
<linearGradient id="paint2_linear_18_853" x1="3.4855" y1="50.4013" x2="130.654" y2="50.0393" gradientUnits="userSpaceOnUse">
<stop stop-color="#2995E2"/>
<stop offset="1" stop-color="#00EBD9"/>
</linearGradient>
<linearGradient id="paint3_linear_18_853" x1="3.48525" y1="50.4013" x2="130.654" y2="50.0393" gradientUnits="userSpaceOnUse">
<stop stop-color="#2995E2"/>
<stop offset="1" stop-color="#00EBD9"/>
</linearGradient>
<linearGradient id="paint4_linear_18_853" x1="3.48554" y1="50.4013" x2="130.654" y2="50.0393" gradientUnits="userSpaceOnUse">
<stop stop-color="#2995E2"/>
<stop offset="1" stop-color="#00EBD9"/>
</linearGradient>
<linearGradient id="paint5_linear_18_853" x1="3.48537" y1="50.4013" x2="130.654" y2="50.0393" gradientUnits="userSpaceOnUse">
<stop stop-color="#2995E2"/>
<stop offset="1" stop-color="#00EBD9"/>
</linearGradient>
<linearGradient id="paint6_linear_18_853" x1="3.48527" y1="50.4013" x2="130.654" y2="50.0393" gradientUnits="userSpaceOnUse">
<stop stop-color="#2995E2"/>
<stop offset="1" stop-color="#00EBD9"/>
</linearGradient>
<linearGradient id="paint7_linear_18_853" x1="3.48526" y1="50.4013" x2="130.654" y2="50.0393" gradientUnits="userSpaceOnUse">
<stop stop-color="#2995E2"/>
<stop offset="1" stop-color="#00EBD9"/>
</linearGradient>
<linearGradient id="paint8_linear_18_853" x1="3.48552" y1="50.4013" x2="130.654" y2="50.0393" gradientUnits="userSpaceOnUse">
<stop stop-color="#2995E2"/>
<stop offset="1" stop-color="#00EBD9"/>
</linearGradient>
<clipPath id="clip0_18_853">
<rect width="512" height="102" fill="white"/>
</clipPath>
</defs>
</svg>
